<?xml version="1.0" encoding="UTF-8"?><!DOCTYPE svg PUBLIC "-//W3C//DTD SVG 1.1//EN" "http://www.w3.org/Graphics/SVG/1.1/DTD/svg11.dtd"><svg xmlns="http://www.w3.org/2000/svg"><symbol id="Audi" viewBox="0 0 95 50"><path d="M69.4 12.8c-2.8 0-5.4 1-7.4 2.6-2-1.6-4.6-2.6-7.4-2.6-2.8 0-5.4 1-7.4 2.6-2-1.6-4.6-2.6-7.4-2.6-2.8 0-5.4 1-7.4 2.6-2-1.6-4.6-2.6-7.4-2.6-6.6 0-12 5.4-12 12s5.4 12 12 12c2.8 0 5.4-1 7.4-2.6 2 1.6 4.6 2.6 7.4 2.6 2.8 0 5.4-1 7.4-2.6 2 1.6 4.6 2.6 7.4 2.6 2.8 0 5.4-1 7.4-2.6 2 1.6 4.6 2.6 7.4 2.6 6.6 0 12-5.4 12-12s-5.4-12-12-12zM30.2 32.3c-1.5 1.1-3.4 1.8-5.5 1.8-5.1 0-9.2-4.1-9.2-9.2s4.1-9.2 9.2-9.2c2 0 3.9.7 5.5 1.8-1.6 2-2.6 4.6-2.6 7.5.1 2.6 1 5.2 2.6 7.3zm2-2c-1.1-1.5-1.8-3.4-1.8-5.5s.7-4 1.8-5.5c1.1 1.5 1.8 3.4 1.8 5.5s-.6 4-1.8 5.5zm12.9 2c-1.5 1.1-3.4 1.8-5.5 1.8s-3.9-.7-5.5-1.8c1.6-2 2.6-4.6 2.6-7.5 0-2.8-1-5.4-2.6-7.5 1.5-1.1 3.4-1.8 5.5-1.8s3.9.7 5.5 1.8c-1.6 2-2.6 4.6-2.6 7.5 0 2.8 1 5.4 2.6 7.5zm2-2c-1.1-1.5-1.8-3.4-1.8-5.5s.7-4 1.8-5.5c1.1 1.5 1.8 3.4 1.8 5.5s-.7 4-1.8 5.5zm12.9 2c-1.5 1.1-3.4 1.8-5.5 1.8s-3.9-.7-5.5-1.8c1.6-2 2.6-4.6 2.6-7.5 0-2.8-1-5.4-2.6-7.5 1.5-1.1 3.4-1.8 5.5-1.8s3.9.7 5.5 1.8c-1.6 2-2.6 4.6-2.6 7.5 0 2.8 1 5.4 2.6 7.5zm2-2c-1.1-1.5-1.8-3.4-1.8-5.5s.7-4 1.8-5.5c1.1 1.5 1.8 3.4 1.8 5.5s-.7 4-1.8 5.5zm7.4 3.8c-2 0-3.9-.7-5.5-1.8 1.6-2 2.6-4.6 2.6-7.5 0-2.8-1-5.4-2.6-7.5 1.5-1.1 3.4-1.8 5.5-1.8 5.1 0 9.2 4.1 9.2 9.2 0 5.2-4.1 9.4-9.2 9.4z"/></symbol><symbol id="BMW" viewBox="0 0 95 50"><path d="M48.5 50c-13.8 0-25-11.2-25-25s11.2-25 25-25 25 11.2 25 25-11.2 25-25 25zm0-49.5C35 .5 24 11.5 24 25s11 24.5 24.5 24.5S73 38.5 73 25 62 .5 48.5.5zm0 10.2c-7.8.2-14.1 6.5-14.3 14.3h14.3V10.7zm0 28.6c7.8-.2 14.1-6.5 14.3-14.3H48.5v14.3zM34.1 15.1c.1 0 .1 0 0 0l1.6-1.8c.2-.2.4-.4.5-.7.3-.3.2-.8-.1-1.1-.1-.1-.3-.2-.5-.2s-.5.1-.6.3l-.7.8-1.3 1.8.7.6.4.3zm-.1-4.3c.1-.4-.1-.8-.5-.9H33c-.2.1-.4.3-.5.4l-1.6 2s-.1.1-.1.2l.3.3.9.7.8-1 .8-1c.2-.3.4-.5.4-.7zM48.5.9C35.2.9 24.4 11.7 24.4 25s10.8 24.1 24.1 24.1S72.6 38.3 72.6 25 61.8.9 48.5.9zm-3.9 1.5l2.3-.3 1.6 4.8 1.6-4.8 2.3.3.3 6.8-1.8-.3-.2-4.5-1.6 4.5h-1.3l-1.6-4.5-.2 4.5-1.8.3.4-6.8zM29.4 13.5l-.5-.4-.1-.1.1-.1c.5-.6.9-1.2 1.4-1.8.5-.7 1.1-1.4 1.6-2l.3-.4c.6-.7 1.6-.8 2.3-.3.3.3.5.6.6 1 .1.3.1.6 0 .9l.1-.1c.8-.6 2-.4 2.6.4.3.5.4 1 .3 1.6-.2.4-.4.8-.7 1.2l-1.7 2.1-1.4 1.8-.1.1h-.1l-.5-.4-2-1.6-2.2-1.9zm19.1 26.6c-8.3 0-15.1-6.8-15.1-15.1S40.2 9.9 48.5 9.9 63.6 16.7 63.6 25s-6.8 15.1-15.1 15.1zm14.4-22.9l-.9-1.5 3-3.9-4.5 2.1-1.3-1.2 4.1-5.4 1.3 1.2-2.4 3.1L66 9.9l1.1 1.4-2.5 3.3 3.5-1.6.9 1.5-6.1 2.7z"/></symbol><symbol id="Chevrolet" viewBox="0 0 95 50"><path d="M61.4 16.8V12H32.8v4.8h-18L7.2 32.6h25.6v5.1h28.7v-5.1h17.7l8-15.8H61.4zm14.4 11H57.3v4.9h-20v-4.9H14.8l3-6.3h19.5v-4.6h20v4.6h21.9l-3.4 6.3z"/></symbol><symbol id="Chrysler" viewBox="0 0 95 50"><path d="M44.2 24l1.7-23-24.2 16.7L44.2 24zM71 18.8L47.6 1l.9 23.1L71 18.8zM49.6 28.3l12.1 19.8 9.7-27.8-21.8 8zM46 30.7L31.2 48.6h29.1L46 30.7zM42.4 28.3l-21-9.2 8.7 28.5 12.3-19.3z"/></symbol><symbol id="Chrysler_old" viewBox="0 0 95 50"><path d="M8.5 21.2c-.9.1-1.8.1-2.7.1-3.1 0-5.8-.8-5.8-2.7C0 16.8 2.7 16 5.8 16c.9 0 1.8.1 2.6.1l.2.9c-.8-.1-1.6-.2-2.8-.2-2 0-3.5.7-3.5 1.9s1.5 1.9 3.5 1.9c1.2 0 2.1-.1 2.9-.2l-.2.8zM12.7 16.1h2.2v2h5v-2h2.2v5.2h-2.2V19h-5v2.3h-2.2v-5.2zM26.3 16.1h5c2.1 0 3.6.5 3.6 1.3 0 1-1.1 1.3-2.9 1.5l2.9 2.4h-2.6l-3.1-2.9h1c1.2 0 2.3-.3 2.3-.9 0-.4-.4-.7-1.7-.7h-2.2v4.4h-2.3v-5.1zM41.4 19.1l-3.9-3h2.8l2.4 2.1 2.5-2.1h2.7l-4.1 3.1v2.1h-2.4v-2.2zM50.3 20.2c1 .2 2.1.3 3.2.3.9 0 1.9-.1 1.9-.6 0-.7-4.9-1.4-4.9-2.7 0-.7 1.1-1.3 4-1.3 1 0 1.9.1 2.9.1l.3.9c-.8-.1-1.7-.2-2.5-.2-1.4 0-1.9.3-1.9.6 0 .8 4.9 1.4 4.9 2.6 0 .6-1 1.4-4.1 1.4-1.2 0-2.3-.1-3.4-.2l-.4-.9zM62.1 16.1h2.4v4.3h5.2v.9h-7.6v-5.2zM82 16.9h-5.8v1.4h5v.7h-5v1.4H82v.9h-8.4v-5.2H82v.8zM85.9 16.1h5c2.1 0 3.6.5 3.6 1.3 0 1-1.1 1.3-2.9 1.5l2.9 2.4h-2.6l-3.1-2.9h1c1.2 0 2.3-.3 2.3-.9 0-.4-.4-.7-1.7-.7h-2.2v4.4h-2.3v-5.1zM63.7 29c-4.2 0-6.5-.1-6.9-.1-.8 0-1.4-.2-1.4-.2s.2.2.3.6c.2.3.3.7.3.7s0-.3.4-.3 10.8 0 17.3-.3c2.9-.1 5.4-.3 7.3-.4-.2.1-.7.3-1.5.5-1 .2-2.5.5-11 .8-8.5.2-10.4.2-11.4.2s-1.1-.1-1.1-.1.1.2.1.6v.9s.2-.7 1-.7c.9 0 5.8-.1 14.4-.4h1.1c-.5.2-1.8.7-3.9.8-2.6.2-5.7.2-8 .2s-3.4.1-4.8 1c-1.6 1-2.3 2.3-4.7 3.2-2.1.8-4 .7-4 .7v.1-.1s-1.9.1-4-.7c-2.4-1-3.1-2.2-4.7-3.2-1.4-.9-2.4-1-4.8-1-2.3 0-5.4 0-8-.2-2.1-.1-3.4-.6-3.9-.8h1.1c8.5.3 13.5.4 14.4.4.8 0 1 .7 1 .7s-.1-.4 0-.9c0-.4.1-.6.1-.6s0 .1-1.1.1c-1 0-2.9 0-11.4-.2s-10-.5-11-.8c-.8-.2-1.3-.4-1.5-.5 2 .2 4.5.3 7.3.4 6.5.3 16.9.3 17.3.3.4 0 .4.3.4.3s.1-.4.3-.8c.2-.4.4-.6.4-.6s-.6.2-1.4.2c-.5 0-2.7.1-6.9.1s-11-.3-15.7-.4c-4.6-.1-8-.7-8-.7s.5.3 1.6.6c.6.2 2.3.4 4.7.5.2.2 1.6 1.3 8.4 1.6.4.3 2 1.3 6.9 1.4 5.9.1 7.2 0 8.3.4 2.2.8 3 2.3 5.2 3.3 2 .9 3.4 1.1 5 1.1s3-.2 5-1.1c2.2-1 3-2.5 5.2-3.3 1.1-.4 2.4-.3 8.3-.4 4.9-.1 6.6-1.1 6.9-1.4 6.8-.4 8.2-1.4 8.4-1.6 2.5-.2 4.1-.4 4.7-.5 1.1-.3 1.6-.6 1.6-.6s-3.4.7-8 .7c-4.6.2-11.4.5-15.6.5z"/><path d="M85.6 28.7c-2.2.5-4.3.5-4.3.5s-.5.7-2.8 1.2c-1.7.4-5.4.5-5.4.5s-.3.8-3.1 1.2c-3.5.5-6.2.3-8.9.4-2.7.1-3.5.4-4.8 1.2-1.4.9-2.7 2-4.4 2.7-.9.4-2.5.8-3.9.9h-.6-.7c-1.4-.1-3-.4-3.9-.9-1.6-.7-3-1.8-4.4-2.7-1.3-.8-2.1-1.2-4.8-1.2-2.7-.1-5.5.1-8.9-.4-2.8-.4-3.1-1.2-3.1-1.2s-3.7-.1-5.4-.5c-2.4-.5-2.8-1.2-2.8-1.2s-2.1 0-4.3-.5c-2.7-.6-2.6-1.2-2.6-1.2s12.2.5 18.4.6c6.7.1 7.4.1 10.9.1 3.2 0 3.9-.3 5.9-1.2 2.5-1.1 4.9-1.2 5.5-1.2 1.7 0 3.5.2 5.9 1.2 2.1.9 2.7 1.2 5.9 1.2 3.5 0 4.2 0 10.9-.1 6.2-.1 18.4-.6 18.4-.6s-.1.6-2.7 1.2l-15.5-.8c-7.7.1-12.2.2-14-.1-1.7-.4-3.4-1.4-5-1.8-1.8-.4-3.3-.5-3.9-.5-.7 0-2.1.1-3.7.5s-3.3 1.4-5 1.8c-1.7.4-6.3.2-14 .1-7.2-.1-18.6-.5-18.6-.5s.6 1 2.9 1.6c1.8.4 4.4.5 4.4.5s1.2.9 2.9 1.3c2.1.4 5.3.4 5.3.4s.6.8 3.2 1.2c3 .4 5 .5 8 .6 3 0 4 .4 4.6.7 1.7.8 3.1 2.1 5.3 3.2 2.2 1 4.6.9 4.8.9.1 0 2.6.1 4.7-.9 2.2-1 3.6-2.4 5.3-3.2.7-.3 1.6-.6 4.6-.7 3 0 5-.2 8-.6 2.6-.3 3.2-1.2 3.2-1.2s3.2 0 5.3-.4c1.7-.3 2.9-1.3 2.9-1.3s2.6 0 4.4-.5c2.4-.5 2.9-1.6 2.9-1.6s-11.4.5-18.6.5l15.6.8z"/><path d="M47.2 36.4c-4.2 0-7.6-2.3-7.6-5.1s3.4-5.1 7.6-5.1c4.2 0 7.6 2.3 7.6 5.1s-3.4 5.1-7.6 5.1zm0-10.2c-4.1 0-7.5 2.3-7.5 5 0 2.8 3.4 5 7.5 5s7.5-2.3 7.5-5-3.4-5-7.5-5z"/><path d="M43 27.9c-.6.3-1.1.7-1.5 1.1-.5.5-1 1.2-1 2.2 0 1 .6 1.8 1 2.2.4.4.9.8 1.5 1.1-.8-1-1.1-2.1-1.1-3.3 0-1.2.3-2.3 1.1-3.3z"/><path d="M47.2 26.2c-4.2 0-7.6 2.3-7.6 5.1s3.4 5.1 7.6 5.1c4.2 0 7.6-2.3 7.6-5.1-.1-2.9-3.5-5.1-7.6-5.1zm0 9.8c-2.4 0-4.7-.8-6.1-2.2-.8-.8-1.2-1.7-1.2-2.6 0-.9.4-1.8 1.2-2.6 1.4-1.3 3.6-2.2 6.1-2.2 2.4 0 4.7.8 6.1 2.2.8.8 1.2 1.7 1.2 2.6-.1 2.7-3.3 4.8-7.3 4.8z"/><path d="M52.8 29c-.4-.4-.9-.8-1.5-1.1.8 1 1.1 2.1 1.1 3.3 0 1.3-.4 2.3-1.1 3.3.6-.3 1.1-.7 1.5-1.1.5-.5 1-1.2 1-2.2.1-1-.5-1.7-1-2.2zM50.7 32.9l-.4 1.8-.3-.2.4-1.4c-.1.3-.1.5-.4.7l-.1.1-.4 1.4-.7-.9c-.1 0-.1 0-.2.1l1 1.3.3-1 .4.3.5-2.4-.4-.2c0 .1 0 .1-.1.2l.4.2z"/><path d="M47.2 26.8c-2.4 0-4.4 2-4.4 4.4 0 2.4 1.9 4.4 4.4 4.4 2.4 0 4.4-1.9 4.4-4.4-.1-2.4-2-4.4-4.4-4.4zm3.4 5.5c-.1.2-.2.5-.2.7-.1.3-.1.6-.4.9-.3.3-.5.3-.8.4-.2 0-.3.1-.6.2-.2.1-.3.2-.5.2-.4.2-.7.4-1.1.3-.4-.1-.6-.2-.8-.3-.1-.1-.3-.1-.5-.2-.1-.1-.3-.1-.4-.1-.3-.1-.5-.1-.9-.4-.3-.3-.4-.4-.4-.7 0-.2-.1-.3-.2-.6-.1-.2-.2-.3-.3-.5-.2-.4-.3-.6-.3-1.1 0-.4.2-.6.3-.8.1-.1.1-.2.2-.4s.1-.3.1-.5c.1-.3.2-.6.5-.9.3-.2.5-.3.7-.4.2 0 .3-.1.5-.2s.3-.1.4-.2c.3-.2.5-.3 1-.3.4 0 .7.2 1 .3.1.1.3.1.4.2l.2.1c.4.1.7.2 1.1.5.3.2.4.5.5.9.1.2.1.3.2.5s.2.3.2.4c.2.3.3.5.3 1 0 .4-.1.6-.3.9l.1.1z"/><path d="M49.6 28.7c-.3-.2-.6-.3-1-.4l-.2-.1c-.2-.1-.3-.1-.5-.2-.3-.1-.5-.3-.8-.3-.3 0-.5.1-.8.3-.1.1-.3.2-.4.3-.2.1-.4.2-.6.2-.2.1-.4.1-.6.3-.2.2-.3.4-.4.8 0 .2-.1.3-.2.5s-.2.3-.2.5c-.1.2-.2.4-.2.7 0 .3 0 .5.2.8l5.7-3.4zM44 31.8c-.1-.2-.2-.3-.2-.5v-.1c0-.3.1-.4.2-.6.1-.1.2-.3.2-.5.1-.2.1-.4.2-.5.1-.3.1-.5.4-.7.2-.2.3-.2.5-.2s.4-.1.6-.2c.2-.1.3-.2.5-.3.3-.2.4-.3.8-.3.3 0 .5.1.8.3.2.1.3.2.5.2l.2.1c.3.1.6.2.9.4-.3-.1-5.5 2.9-5.6 2.9zM50.4 30.4l-5.7 3.2h.1c.3.2.5.3.8.4.1 0 .3.1.4.1.2.1.4.2.5.2.2.1.3.2.6.2s.5-.1.9-.2c.1-.1.3-.2.5-.2.2-.1.4-.2.6-.2.3-.1.4-.1.6-.3.2-.2.2-.4.3-.7.1-.2.1-.5.3-.8l.1-.3c.2-.3.2-.4.2-.8.1-.2 0-.3-.2-.6zm0 1.4l-.1.3c-.1.3-.2.5-.3.8-.1.3-.1.5-.3.6-.2.2-.3.2-.6.3-.2 0-.4.1-.6.2-.2.1-.3.2-.5.2-.3.2-.5.3-.8.2-.3 0-.4-.1-.6-.2-.1-.1-.3-.2-.5-.3-.2-.1-.3-.1-.4-.1-.3-.1-.4-.1-.7-.3.2-.1 5.4-3 5.5-3.1.1.2.2.3.2.6-.1.4-.2.6-.3.8z"/><path d="M47.2 28.7c-1.4 0-2.6 1.1-2.6 2.6v.2h.1v-.1l.3-.2v.1l-.3.2.4-.2h.1c0-1.1.9-2 2-2 .4 0 .7.1 1 .3h.1v-.4l.1.1v.3l.1-.1v-.2l.1.1c-.3-.6-.8-.7-1.4-.7zm-2.1 2.1l-.3.2v-.1l.3-.2v.1zm.1-.4c0 .1 0 .1 0 0l-.4.2v-.1l.4-.1zm.2-.3l-.4.1.1-.1.4-.1-.1.1zm.2-.3s0 .1 0 0h-.4l.1-.1h.4l-.1.1zm.3-.2s-.1 0 0 0h-.4l.1-.1h.4l-.1.1zm.4-.3l-.1.1-.4-.1.1-.1.4.1zm.3-.1l-.1.1-.4-.3.1-.1.4.3c0-.1 0-.1 0 0zm.4-.1h-.1l-.3-.3h.1l.3.3zm.3 0h-.1l-.3-.3h.1l.3.3c.1 0 .1 0 0 0zm.4.1h-.1l-.2-.3h.1l.2.3c0-.1 0 0 0 0zm.4.1H48l-.1-.4h.1l.1.4zM49.7 30.9l-.5.3h-.1c0 1.1-.9 2-2 2-.4 0-.8-.1-1.1-.3h-.1l.1.1.1.1v.4l-.1-.1V33l-.3.2h-.1c.4.4 1 .6 1.6.6 1.4 0 2.6-1.2 2.6-2.6 0-.1 0-.2-.1-.3zm-3.9 2.4l-.1-.1.2-.1-.1.2zm.8.3h-.1l-.1-.4h.1l.1.4zm.4.1h-.1l-.2-.3h.1l.2.3zm.4 0h-.1l-.3-.3h.2l.2.3c.1 0 .1 0 0 0zm.4-.1h-.1l-.3-.3h.1l.3.3c.1 0 .1 0 0 0zm.5-.1l-.1.1-.4-.2.1-.1.4.2c0-.1 0 0 0 0zm.3-.3l-.1.1-.4-.1.1-.1.4.1zm.3-.1c-.1 0-.1 0 0 0h-.4l.1-.1h.4l-.1.1zm.3-.3c-.1 0-.1 0 0 0h-.4l.1-.1h.4l-.1.1zm.2-.4l-.4.1.1-.1.4-.1-.1.1zm.1-.4l-.4.2v-.1l.4-.1zm.2-.4s-.1 0 0 0l-.4.3v-.2l.3-.2.1.1zm0-.4l-.3.2v-.2l.3-.2v.2zM50.1 29.9c-.1-.2-.1-.4-.2-.5-.1-.2-.1-.4-.2-.5L44 32.1c.1.1.1.2.2.4.1.3.2.5.2.7 0 .2.1.3.2.4l5.7-3.2c0-.2-.1-.3-.2-.5zm-4.7 2s-.1.1-.2.1v-.3s-.1.1-.2.1v1.1c.1 0 .1-.1.1-.1v-.2l.2-.1v.5l-.4.2c-.1 0-.1 0-.1-.1v-1.3s0-.1.1-.1c.1-.1.3-.2.4-.2 0 0 .1 0 .1.1v.3zm.6.7l-.2.1v-.6l-.2.1v.7l-.2.1v-1.5l.2-.1v.6l.2-.1v-.6l.2-.1v1.4zm.8-.5s-.1.1-.2.1l-.2-.5h-.1v.7l-.2.1V31c.1-.1.2-.1.3-.2h.1V31.6l-.1.1.2.4h.1c.1-.1.1 0 .1 0zm.3-.9v.7l-.1.1v-.8c-.1-.1-.3-.5-.3-.5l.2-.1.2.3.1-.5c.1 0 .2-.1.2-.1l-.3.9zm.8.3l-.4.2h-.1v-.4l.2-.1v.2l.2-.1v-.4l-.2.1h-.1v-.7-.1l.4-.2c.1 0 .1 0 .1.1v.3l-.2.1v-.2l-.2.1v.4c.1 0 .2-.1.3-.1v.8c0-.1 0 0 0 0zm.6-.3l-.5.2v-1.5l.2-.1v1.3l.2-.1c.1 0 .1.2.1.2zm.5-.3l-.5.3v-1.5l.5-.3v.2s-.2.1-.3.2v.4l.2-.1v.2l-.2.1v.4l.3-.2v.3zm.7-.4l-.1.1-.2-.5h-.1v.7l-.2.1v-1.5c.1-.1.2-.1.3-.2h.1V30l-.1.1.2.4h.1c0-.2 0 0 0 0z"/><path d="M46.3 31.5l.2-.1V31l-.2.1zM49.3 29.9l.1-.1v-.4l-.1.1zM47.2 29.5c-.9 0-1.7.7-1.8 1.6l2.5-1.4c-.2-.2-.5-.2-.7-.2zm-.4.6v-.2l-.6.5v-.2c-.1.1-.3.3-.5.4l.5-.7v.2l.7-.6v.3s.3-.2.4-.2l-.5.5zM46.3 32.8c.2.1.5.2.8.2.9 0 1.7-.7 1.8-1.7l-2.6 1.5zm1.7-.3v-.3l-.6.5v-.2c-.1.1-.3.1-.4.2.2-.1.4-.3.6-.4v.2l.6-.5v.3l.4-.4-.6.6z"/><path d="M49.9 30.8v.4c0 1.5-1.2 2.7-2.7 2.7-.7 0-1.3-.3-1.7-.6.4.4 1.1.7 1.8.7 1.5 0 2.7-1.2 2.7-2.7 0-.2-.1-.4-.1-.5zM44.5 31.2c0-1.5 1.2-2.7 2.7-2.7a2.716 2.716 0 0 0 0 0c-1.5 0-2.7 1.2-2.7 2.7-.1.1 0 .3 0 .4v-.4zM44.9 29.2zM44.6 29.5c.1 0 .1 0 0 0 .1 0 0 0 0 0zM44.9 29.5zM45 29.4c0 .1 0 0 0 0zM45 29.2c0-.1 0-.1 0 0 0-.1 0-.1 0 0 0-.1 0 0 0 0zM45.1 29.2c.1 0 .1 0 0 0 0-.1 0-.1 0 0zM44.8 29.6s-.1 0 0 0c-.1 0-.1 0 0 0-.1 0 0 0 0 0zM44.9 29zM45.2 28.7c0-.1 0-.1 0 0 0-.1 0-.1 0 0 0-.1 0-.1 0 0 0-.1 0 0 0 0zM44.8 29s0-.1 0 0c-.1 0-.1 0 0 0-.1 0 0 0 0 0zM45 29.3s-.1 0 0 0c-.1 0-.1 0 0 0-.1 0 0 0 0 0zM45.4 28.6c.1 0 .1 0 0 0zM44.5 30.4c-.1 0-.1 0 0 0-.1 0-.1 0 0 0-.1 0-.1 0 0 0zM44.8 29.1c.1 0 .1 0 0 0 .1 0 .1 0 0 0 .1 0 0 0 0 0zM44.8 28.8c.1 0 .1 0 0 0z"/><path d="M45.1 29.1c-.1-.1-.1-.1 0 0-.1-.1-.1 0 0 0-.1 0-.1 0 0 0zM45.1 29.2c0-.1 0-.1 0 0 0-.1 0-.1 0 0zM44.5 29.7zM44.6 29.8zM44.9 29.5c-.1 0-.1 0 0 0zM44.9 29s0-.1 0 0c0-.1 0-.1 0 0 0-.1-.1-.1 0 0-.1-.1-.1 0 0 0zM45.2 28.8c.1 0 0 0 0 0zM45.2 28.9zM44.7 29.4c.1 0 .1 0 0 0 .1-.1.1-.1 0 0 0-.1 0-.1 0 0zM44.8 29.3s0-.1 0 0c0-.1 0-.1 0 0 0-.1 0 0 0 0zM45 29s0-.1 0 0c0-.1 0-.1 0 0 0-.1 0-.1 0 0zM44.7 29.2s0-.1 0 0c0-.1 0-.1 0 0zM45.1 28.8zM44.5 29.5c-.1 0-.1 0 0 0zM44.6 29.5zM45.3 28.7zM43.9 31.1c.1 0 .1-.1 0 0 0-.1 0-.1 0 0 0-.1 0 0 0 0zM44.5 29.4zM44.6 29.3zM44.6 29.6zM44.6 29.4zM44.7 29.5c-.1 0-.1 0 0 0zM44.8 29.7c.1 0 .1-.1 0 0 .1-.1.1-.1 0 0 0-.1 0-.1 0 0 0-.1 0 0 0 0zM44.3 31.2c.1 0 .1 0 0 0 .1 0 .1 0 0 0zM44.7 29.2c.1 0 .1 0 0 0 .1 0 .1 0 0 0zM44.6 30.3c0-.1 0-.1 0 0-.1-.1-.1-.1 0 0-.1 0-.1 0 0 0zM44.4 29.7c0 .1.1 0 0 0 .1 0 .1 0 0 0zM44.7 29.1c0-.1 0-.1 0 0 0-.1 0-.1 0 0zM45.5 28.8c-.1 0-.1 0 0 0-.1 0-.1 0 0 0-.1.1-.1.1 0 0zM44.3 30.6c-.1 0-.1 0 0 0-.1 0-.1 0 0 0-.1 0-.1 0 0 0zM44.1 31zM44.3 30.9c.1 0 0 0 0 0zM44.4 30.8s.1 0 0 0c.1 0 .1 0 0 0zM44.3 30.6c.1 0 .1-.1 0 0 .1-.1 0-.1 0 0 0-.1 0-.1 0 0zM44.4 30.6c.1 0 .1 0 0 0 .1-.1.1-.1 0 0 .1-.1.1-.1 0 0 0-.1 0-.1 0 0zM43.9 31.2zM44 31.4c-.1 0-.1 0 0 0-.1 0-.1 0 0 0zM44.2 30.5s0-.1 0 0zM44.3 30.7zM44.3 30.8c-.1 0 0 0 0 0zM44.3 30.7c-.1 0-.1 0 0 0-.1 0-.1 0 0 0-.1 0 0 0 0 0zM44.4 31.5zM44.2 30.5zM44.4 30.5s0-.1 0 0c-.1-.1-.1-.1 0 0-.1-.1-.1 0 0 0-.1 0 0 0 0 0zM44.4 30.5zM44.1 31.2s-.1 0 0 0c-.1 0 0 0 0 0zM44.2 31.3zM44.3 30.9zM44.2 30.4c-.1 0-.1 0 0 0-.1 0-.1.1 0 0zM44.4 30.3c0-.1-.1-.1 0 0-.1-.1-.1 0 0 0-.1 0-.1 0 0 0zM44.4 30.3c.1-.1.1-.1 0 0 0-.1 0-.1 0 0 0-.1 0-.1 0 0zM44.2 30.9s0-.1 0 0c0-.1 0-.1 0 0-.1-.1-.1-.1 0 0-.1 0-.1 0 0 0zM44.2 30.7c-.1 0 0 0 0 0zM44 30.8zM44.1 30.6s0-.1 0 0c0-.1 0-.1 0 0zM44.3 30.4s0-.1 0 0c0-.1-.1-.1 0 0-.1-.1-.1-.1 0 0-.1 0 0 0 0 0zM44.1 30.7c0-.1 0-.1 0 0-.1-.1-.1 0 0 0-.1 0-.1 0 0 0zM44.3 30.2c.1 0 .1 0 0 0 0-.1 0-.1 0 0zM44.6 30.1s0-.1 0 0c0-.1 0-.1 0 0 0-.1-.1-.1 0 0zM44.7 30.1c0-.1 0-.1 0 0 0-.1 0-.1 0 0 0-.1 0-.1 0 0zM44.4 29.9zM44.4 30zM44.7 29.9c0-.1 0 0 0 0zM44.6 29.9zM45.1 29.1s0-.1 0 0c0-.1 0-.1 0 0 0-.1 0-.1 0 0 0-.1 0 0 0 0zM44.5 30.1c-.1 0-.1 0 0 0-.1 0 0 0 0 0zM44.6 29.7zM44.7 29.7s.1 0 0 0c.1 0 .1 0 0 0 .1 0 .1 0 0 0zM44.5 29.9s0-.1 0 0c0-.1 0-.1 0 0 0-.1 0-.1 0 0zM44.6 29.7c0-.1-.1-.1 0 0-.1 0-.1 0 0 0-.1 0 0 0 0 0z"/><path d="M44.9 29.4c0-.1 0-.1 0 0-.1-.1-.1 0 0 0zM44.7 30.1c-.1 0-.1 0 0 0-.1 0-.1 0 0 0-.1 0 0 0 0 0zM46.3 28.5zM45.6 28.8zM47.8 28.3s.1 0 0 0c.1 0 .1 0 0 0zM46 28.6c0 .1 0 .1 0 0 .1.1.1.1 0 0 .1 0 .1 0 0 0zM45.4 28.9zM45.8 28.6c.1 0 .1 0 0 0 .1 0 .1 0 0 0zM46.4 28.4zM46.4 28.5zM46.3 28.4s.1 0 0 0c.1 0 .1 0 0 0 .1 0 .1 0 0 0 .1 0 0 0 0 0zM45.6 28.6zM44.1 31.7zM45.4 29.1s0-.1 0 0c0-.1 0-.1 0 0 0-.1 0 0 0 0zM45.2 29zM46 28.7c0-.1 0-.1 0 0 0-.1 0-.1 0 0 0-.1 0-.1 0 0zM45.4 28.7c.1 0 .1 0 0 0 .1-.1.1-.1 0 0 .1-.1.1-.1 0 0 0-.1 0-.1 0 0zM46.4 28.4s.1 0 0 0c.1 0 .1 0 0 0 .1-.1.1-.1 0 0zM46 28.5s.1 0 0 0c.1 0 .1 0 0 0 .1-.1.1-.1 0 0 0-.1 0 0 0 0zM45.7 28.5c.1 0 .1 0 0 0 .1 0 0-.1 0 0zM46.2 28.5c0-.1 0-.1 0 0 0-.1 0-.1 0 0 0-.1 0 0 0 0zM45.9 28.5c-.1 0 0 0 0 0zM46 28.6c0-.1 0-.1 0 0 0-.1 0-.1 0 0 0-.1 0 0 0 0zM46.2 28.5zM46.2 28.6s0-.1 0 0c0-.1 0-.1 0 0zM46.2 28.3s.1 0 0 0c.1 0 0 0 0 0zM44.4 30.7zM44.5 30.4zM44.5 30.6s-.1 0 0 0c-.1 0-.1 0 0 0-.1 0-.1.1 0 0zM45.5 28.9s0 .1 0 0c.1 0 .1 0 0 0 .1 0 0 0 0 0zM45.7 28.8s0-.1 0 0c0-.1 0-.1 0 0zM45.6 28.9s.1 0 0 0c.1 0 .1 0 0 0 .1 0 .1 0 0 0zM45.3 29c.1 0 .1 0 0 0 .1 0 0 0 0 0zM45.9 28.7zM46.2 28.4zM44.4 31s.1 0 0 0c.1-.1.1-.1 0 0 0-.1 0-.1 0 0zM45.9 28.4c.1 0 .1 0 0 0 .1 0 .1 0 0 0 .1 0 .1 0 0 0zM44.3 31.5c0-.1 0-.1 0 0 0-.1 0-.1 0 0 0-.1 0-.1 0 0zM44 31.8s.1-.1 0 0c.1-.1 0-.1 0 0 0-.1 0-.1 0 0 0-.1 0 0 0 0zM45.4 28.8s.1 0 0 0c.1 0 .1 0 0 0 .1 0 .1-.1 0 0 .1-.1 0 0 0 0zM44.4 31.2s0-.1 0 0c0-.1 0-.1 0 0 0-.1 0 0 0 0zM44.4 31.3s0-.1 0 0c0-.1 0-.1 0 0zM45.6 28.7zM45.2 29.2s.1 0 0 0c.1 0 .1 0 0 0 .1 0 0 0 0 0zM45.3 29.1s-.1 0 0 0zM44.4 31.4c0-.1 0-.1 0 0 0-.1 0-.1 0 0zM45.5 29c-.1 0-.1 0 0 0zM45.8 28.6s0 .1 0 0c0 .1 0 .1 0 0zM45 28.8s0-.1 0 0c0-.1 0-.1 0 0-.1-.1-.1-.1 0 0zM43.9 31.4s0-.1 0 0c0-.1 0-.1 0 0 0-.1 0-.1 0 0zM45.2 29.3c0-.1 0-.1 0 0 0-.1 0 0 0 0zM46.9 28.2zM47 28.3c.1-.1.1-.1 0 0 0-.1 0-.1 0 0 0-.1 0-.1 0 0zM47.1 28.3s0 .1 0 0c0 .1 0 0 0 0zM47 28.1zM46.9 28s0-.1 0 0c0-.1 0-.1 0 0 0-.1 0-.1 0 0 0-.1 0 0 0 0zM46.9 28.1s.1 0 0 0zM47.1 27.9c0-.1 0-.1 0 0 0-.1 0 0 0 0zM47.1 28.2s0-.1 0 0c0-.1 0 0 0 0zM47.1 28.3zM47 28c.1 0 .1 0 0 0 0-.1 0-.1 0 0zM47.4 28.1s0-.1 0 0c0-.1 0-.1 0 0zM47.3 28.1c.1 0 0 0 0 0zM46.8 28.2zM47.1 28.1s.1 0 0 0c.1-.1.1-.1 0 0 0-.1 0-.1 0 0zM46.9 28.4s.1 0 0 0c.1-.1.1-.1 0 0 0-.1 0-.1 0 0zM46.8 28.3s-.1 0 0 0zM47.3 28zM47.5 28.1s0-.1 0 0c0-.1 0-.1 0 0 0-.1 0 0 0 0zM46.6 28.1zM46.5 28.1c0-.1 0-.1 0 0 0-.1 0-.1 0 0zM46.7 28.1c0-.1 0-.1 0 0 0-.1 0-.1 0 0 0-.1 0 0 0 0zM46.7 28c.1-.1.1-.1 0 0 0-.1 0-.1 0 0 0-.1 0 0 0 0zM46.8 28zM47.6 28.2s-.1 0 0 0c-.1 0-.1 0 0 0-.1 0-.1 0 0 0zM47.2 28.2zM47.7 28.3zM47.4 27.9c0 .1 0 .1 0 0 0 .1 0 .1 0 0 .1.1.1.1 0 0zM47.4 28.2c.1 0 .1 0 0 0 0-.1 0-.1 0 0zM47.6 28c0 .1 0 .1 0 0 .1.1.1 0 0 0zM47.5 28.3zM47.8 28.1c.1 0 .1 0 0 0zM47.4 27.9zM47.7 28zM47.4 28.4zM47.3 28.2zM47.6 28.4zM47.7 28.4zM47.4 28.3zM47.6 28.2zM47.7 28.2c.1 0 .1 0 0 0 .1 0 .1 0 0 0 .1 0 .1 0 0 0zM47.2 28.4zM47.2 28.3s.1 0 0 0c.1 0 .1 0 0 0 .1 0 .1 0 0 0 .1 0 0 0 0 0zM47.5 28.4c0-.1 0-.1 0 0zM47.2 27.9s0-.1 0 0c0-.1 0 0 0 0zM46.6 28.4c.1 0 .1 0 0 0 .1 0 .1 0 0 0 .1 0 .1 0 0 0zM46.6 28.5s0-.1 0 0c0-.1 0-.1 0 0zM46.6 28.4c0-.1 0-.1 0 0 0-.1 0-.1 0 0-.1-.1 0 0 0 0zM46.8 28.4c0 .1 0 0 0 0zM46.7 28.3zM46.4 28.2c-.1 0-.1 0 0 0 0 .1 0 .1 0 0 0 .1 0 0 0 0zM46.6 28.2zM46.5 28.2s-.1 0 0 0c-.1 0 0 .1 0 0zM47.1 28.5s0-.1 0 0c0-.1 0-.1 0 0 0-.1 0-.1 0 0 0-.1 0 0 0 0zM47.7 28.4c0 .1 0 .1 0 0 .1 0 .1 0 0 0zM47.9 28.4zM47.8 28.5zM47.8 28.4s.1 0 0 0c.1 0 .1 0 0 0zM47.9 28.4c.1 0 .1 0 0 0 .1 0 .1 0 0 0zM47.7 28.2s0 .1 0 0c.1.1.1.1 0 0 .1 0 .1 0 0 0 .1 0 0 0 0 0zM47.7 28.3zM48.4 28.5c0-.1 0-.1 0 0 0-.1 0-.1 0 0zM48.5 28.5c0 .1 0 .1 0 0 0 .1 0 0 0 0zM48.5 28.6c0 .1 0 .1 0 0 0 .1.1.1 0 0 .1.1.1 0 0 0zM48.6 28.4c-.1 0-.1 0 0 0zM48.7 28.5zM48.5 28.4zM49 28.8zM49.1 28.5s0 .1 0 0c0 .1 0 0 0 0zM49.3 28.7c.1 0 .1 0 0 0 .1 0 .1 0 0 0zM48.6 28.5c0 .1 0 0 0 0zM48.5 28.6s.1 0 0 0zM49.1 28.6s.1.1 0 0c.1 0 .1 0 0 0 .1 0 .1 0 0 0zM48.9 28.6c.1 0 .1 0 0 0 .1-.1 0-.1 0 0 0-.1 0 0 0 0zM48.8 28.6c.1 0 .1 0 0 0 0-.1 0-.1 0 0zM48.3 28.4zM48.7 28.4c0 .1 0 .1 0 0 0 0-.1 0 0 0zM48.4 28.6c-.1 0-.1 0 0 0zM48.2 28.5c.1 0 .1 0 0 0 .1 0 .1 0 0 0zM48.9 28.5s0-.1 0 0c0-.1 0-.1 0 0-.1 0-.1 0 0 0zM49 28.6c.1 0 .1 0 0 0 .1 0 0 0 0 0zM48.2 28.2zM48.1 28.3c0-.1 0-.1 0 0zM47.9 28.2s.1 0 0 0c.1 0 .1 0 0 0 .1-.1.1-.1 0 0zM48.3 28.3c0 .1.1.1 0 0 .1.1.1 0 0 0 .1 0 .1 0 0 0zM48.2 28.3c.1 0 .1 0 0 0zM49 28.8c0-.1 0-.1 0 0 0-.1 0-.1 0 0zM48.6 28.6c.1 0 .1 0 0 0 .1 0 .1 0 0 0 .1 0 .1 0 0 0zM49.1 28.9zM49 28.5zM48.9 28.6s0 .1 0 0c0 .1 0 .1 0 0 0 .1 0 .1 0 0 0 .1 0 0 0 0zM49.1 28.7zM48.9 28.8zM49.3 28.7zM49.2 28.6c0 .1 0 .1 0 0 0 .1 0 0 0 0zM48.8 28.8c0 .1 0 0 0 0zM48.7 28.6s.1 0 0 0c.1 0 .1 0 0 0 .1 0 0 0 0 0zM48.9 28.9c.1 0 .1 0 0 0 .1 0 0 0 0 0zM48.9 29zM48.8 28.7c0 .1 0 .1 0 0zM49 28.7s0 .1 0 0c0 .1.1.1 0 0 .1.1.1.1 0 0 .1 0 .1 0 0 0zM49.2 28.8c0 .1 0 .1 0 0zM48.6 28.8zM48.7 28.7c0 .1 0 0 0 0zM48.8 28.9c.1 0 .1 0 0 0 .1 0 .1-.1 0 0 .1-.1 0 0 0 0zM48.7 28.9c0-.1 0-.1 0 0 0-.1 0-.1 0 0zM48.1 28.5zM48 28.5c0 .1 0 .1 0 0zM48 28.4c0 .1.1.1 0 0 .1 0 .1 0 0 0 .1 0 .1 0 0 0zM48.2 28.6c.1 0 .1 0 0 0 .1 0 0 0 0 0zM48.2 28.4c0 .1 0 .1 0 0 0 .1 0 .1 0 0zM47.9 28.2c0 .1 0 .1 0 0 0 .1 0 .1 0 0zM48.2 28.3c-.1 0-.1 0 0 0 0 .1 0 .1 0 0 0 .1 0 .1 0 0zM48 28.3c.1 0 .1-.1 0 0 0-.1 0-.1 0 0zM48.5 28.8c0-.1 0-.1 0 0 0-.1 0-.1 0 0 0-.1 0 0 0 0zM44.2 31s.1 0 0 0c.1 0 .1 0 0 0 .1 0 .1 0 0 0zM44.1 31.2s.1 0 0 0c.1 0 .1 0 0 0zM44.2 31.3c.1 0 .1 0 0 0zM44.1 31zM44.2 31c0-.1 0 0 0 0zM44.1 30.9zM44.2 31.1s.1 0 0 0c.1 0 .1 0 0 0 .1 0 0 0 0 0zM44 31.1zM44.3 30.9c-.1 0-.1 0 0 0-.1 0-.1 0 0 0-.1 0-.1 0 0 0zM44 30.9zM44.2 31.5s0-.1 0 0c0-.1 0-.1 0 0 0-.1 0-.1 0 0 0-.1 0 0 0 0zM44.1 31.2c0 .1 0 0 0 0s-.1 0 0 0c-.1 0-.1 0 0 0zM44 31.7c-.1-.1-.1-.1 0 0-.1 0-.1 0 0 0-.1 0-.1 0 0 0zM44.2 31.6s0-.1 0 0c0-.1 0-.1 0 0 0-.1 0-.1 0 0 0-.1 0 0 0 0zM44 31.5c.1 0 .1 0 0 0 0-.1 0-.1 0 0zM44 31.5zM44.3 31.1s0-.1 0 0c0-.1 0-.1 0 0 0-.1 0-.1 0 0 0-.1 0 0 0 0zM44.3 31.5c-.1 0-.1 0 0 0-.1 0-.1 0 0 0zM44 31.6c.1 0 .1 0 0 0 .1 0 0 0 0 0zM44.2 31.2c.1 0 .1 0 0 0 .1 0 0 0 0 0zM44.1 31.4s0-.1 0 0c0-.1 0-.1 0 0 0-.1 0-.1 0 0zM44.2 31.2c0-.1 0-.1 0 0-.1 0-.1 0 0 0zM44.3 31.6c-.1 0-.1 0 0 0-.1 0-.1 0 0 0zM49.6 33.2c-.1 0-.1 0 0 0zM49.8 32.9s0-.1 0 0zM49.6 32.9s-.1 0 0 0c-.1 0-.1 0 0 0zM49.5 32.9c-.1 0-.1 0 0 0-.1.1-.1.1 0 0-.1.1-.1.1 0 0 0 .1 0 0 0 0zM49.4 33.2c0 .1 0 .1 0 0 0 .1.1.1 0 0 .1 0 .1 0 0 0zM49.3 33.2s.1 0 0 0zM49.7 32.8c0-.1 0-.1 0 0zM49.5 33.4s.1 0 0 0c.1 0 .1 0 0 0 .1 0 .1 0 0 0zM49.3 33.7c0 .1 0 .1 0 0 0 .1 0 0 0 0zM49.7 33.4zM49.5 33.1zM49 33.8zM50 32zM49.6 33.3zM49.6 33.6zM49.4 33.3c0 .1 0 .1 0 0zM49.4 33.2c0 .1 0 0 0 0zM49.9 32.7zM49.8 32.6zM49.6 32.9zM49.6 33.4c0 .1 0 .1 0 0 0 .1 0 .1 0 0zM49.2 33.6zM49.3 33.5c-.1 0-.1 0 0 0-.1 0-.1 0 0 0zM49.7 33s0 .1 0 0c0 .1 0 0 0 0zM49.6 33.1c.1.1.1.1 0 0 .1 0 .1 0 0 0 .1 0 .1 0 0 0zM49.4 33.4c0 .1.1.1 0 0 .1.1.1.1 0 0 .1 0 .1 0 0 0zM49.8 33.2c-.1 0-.1 0 0 0-.1 0-.1 0 0 0zM49.3 33.6c.1 0 .1 0 0 0zM50 32.8s0 .1 0 0c0 .1 0 .1 0 0 0 .1 0 .1 0 0zM49.9 32.9c-.1 0-.1 0 0 0-.1 0-.1 0 0 0zM49.1 33.6s0 .1 0 0c0 .1 0 .1 0 0 0 .1.1.1 0 0 .1.1.1 0 0 0zM50.5 31.3s0 .1 0 0c0 .1 0 .1 0 0zM49.9 33zM49.9 33.1zM49.8 32.7c0 .1 0 .1 0 0 0 .1 0 .1 0 0 0 .1 0 0 0 0zM49.8 33c.1 0 .1 0 0 0zM49.8 32.9zM49.6 32.7c0 .1 0 .1 0 0 0 .1 0 .1 0 0zM50.1 31.2zM49.7 33.2zM49.9 32.1c0 .1 0 .1 0 0 0 .1 0 0 0 0zM50 32.6c0 .1 0 .1 0 0 0 .1 0 .1 0 0 0 .1 0 0 0 0zM49.7 33.3c0 .1 0 .1 0 0 .1.1.1 0 0 0 .1 0 .1 0 0 0zM49 33.5s0 .1 0 0c0 .1 0 .1 0 0 .1.1 0 0 0 0zM50.2 31.8c0-.1 0-.1 0 0zM50.3 31.4c.1 0 .1 0 0 0zM50.1 31.5zM50 31.6zM50.1 31.8c0 .1 0 .1 0 0 0 .1 0 .1 0 0zM50 31.8c0 .1 0 .1 0 0 0 .1 0 .1 0 0 0 .1 0 0 0 0zM50.5 31.2s.1 0 0 0c.1 0 .1 0 0 0 0-.1 0-.1 0 0zM50.5 31zM50.2 31.9c.1 0 .1 0 0 0 .1 0 .1 0 0 0 .1 0 .1 0 0 0zM50.1 31.7zM50.2 31.6zM50.2 31.7c0-.1 0-.1 0 0zM50 30.9c.1 0 .1 0 0 0 .1 0 .1 0 0 0 .1 0 0 0 0 0zM50.3 31.8c0 .1 0 .1 0 0 0 .1 0 .1 0 0 0 .1 0 0 0 0zM50.1 31.9c0 .1 0 .1 0 0 .1 0 0 0 0 0zM50 31.8c0 .1 0 .1 0 0 .1.1.1.1 0 0 .1 0 .1 0 0 0zM50.4 31.2zM50.3 31.1s-.1 0 0 0c-.1 0 0 0 0 0zM50.1 31.5c.1 0 .1 0 0 0zM50.3 31.9s0 .1 0 0c0 .1 0 .1 0 0 0 .1 0 .1 0 0zM50.1 32.1zM50 32.1s0 .1 0 0c0 .1 0 .1 0 0 0 .1 0 0 0 0zM50.3 31.5c0 .1 0 .1 0 0 0 .1 0 .1 0 0zM50.3 31.7zM50.4 31.6zM50.4 31.8zM50.2 32c0 .1 0 .1 0 0 0 .1 0 0 0 0zM50.4 31.7zM50.1 32.2c.1 0 .1 0 0 0zM49.9 32.3c0 .1 0 .1 0 0 0 .1 0 .1 0 0zM49.8 32.4zM50 32.5c.1 0 .1 0 0 0zM50.1 32.3c-.1 0-.1.1 0 0-.1.1-.1.1 0 0 0 .1 0 .1 0 0 0 .1 0 0 0 0zM49.7 32.5c.1 0 .1 0 0 0 .1 0 .1 0 0 0zM49.9 32.4c-.1 0-.1 0 0 0-.1.1-.1.1 0 0 0 .1 0 .1 0 0zM49.3 33.3c0 .1 0 .1 0 0 0 .1 0 .1 0 0zM50 32.3s0-.1 0 0zM49.8 32.6s0 .1 0 0c0 .1 0 .1 0 0 0 .1.1.1 0 0zM49.7 32.7zM49.9 32.5c.1.1.1.1 0 0 .1.1.1 0 0 0 .1 0 .1 0 0 0zM49.9 32.7zM49.6 33s0 .1 0 0zM49.8 32.2c.1.1.1 0 0 0 .1 0 .1 0 0 0 .1 0 0 0 0 0zM48.2 33.9c-.1 0-.1 0 0 0zM48.9 33.6c0-.1-.1 0 0 0-.1 0 0 0 0 0zM46.6 34.1zM48.4 33.7c0 .1 0 0 0 0zM49.1 33.4s-.1 0 0 0c-.1 0-.1 0 0 0-.1.1-.1.1 0 0-.1.1 0 .1 0 0zM48.6 33.8zM48 34zM48.1 33.9zM48.1 34zM48.9 33.8c-.1 0-.1 0 0 0-.1 0-.1 0 0 0zM50.4 30.7c-.1 0-.1 0 0 0-.1 0-.1 0 0 0-.1 0 0 0 0 0zM49.1 33.3c-.1 0-.1 0 0 0-.1.1-.1.1 0 0zM49.3 33.4c-.1 0-.1 0 0 0-.1 0-.1 0 0 0zM48.5 33.8c-.1 0-.1 0 0 0zM49 33.7c0 .1 0 .1 0 0 0 .1 0 .1 0 0zM48 34zM48.4 33.9c0 .1 0 .1 0 0zM48.7 33.9zM48.3 33.9c0 .1 0 .1 0 0 0 .1 0 .1 0 0zM48.6 33.9zM48.4 33.8s0 .1 0 0c0 .1 0 .1 0 0zM48.3 33.9zM48.3 33.8zM48.3 34.1s-.1 0 0 0c-.1 0-.1 0 0 0-.1 0-.1 0 0 0zM50 31.7c.1 0 .1 0 0 0 .1 0 .1 0 0 0 .1 0 .1 0 0 0zM50 32c-.1 0-.1 0 0 0-.1 0-.1 0 0 0zM50 31.7c0 .1 0 .1 0 0 0 .1 0 0 0 0zM48.9 33.4c0 .1 0 .1 0 0 0 .1 0 .1 0 0zM48.7 33.6c.1 0 .1 0 0 0 .1 0 .1 0 0 0zM48.9 33.5c-.1 0-.1 0 0 0-.1 0-.1 0 0 0-.1 0-.1 0 0 0-.1 0 0 0 0 0zM49.1 33.4zM48.6 33.7c-.1 0-.1 0 0 0-.1 0 0 0 0 0zM48.3 34c-.1 0-.1 0 0 0-.1 0-.1 0 0 0zM50 31.3s0 .1 0 0c0 .1 0 .1 0 0 0 .1.1.1 0 0 .1.1.1.1 0 0zM48.5 34c0-.1 0-.1 0 0zM50.1 30.9s0 .1 0 0c0 .1 0 .1 0 0 .1.1.1.1 0 0zM50.4 30.6c0 .1 0 .1 0 0 0 .1 0 .1 0 0zM49 33.6s-.1 0 0 0zM50 31.2c.1 0 .1 0 0 0zM50.1 31.1c-.1 0-.1 0 0 0-.1 0-.1 0 0 0zM48.9 33.7c-.1 0-.1 0 0 0-.1 0-.1 0 0 0zM49.2 33.2c0 .1 0 .1 0 0zM49.2 33.3zM50.1 31c-.1 0-.1 0 0 0-.1.1 0 .1 0 0 0 .1 0 0 0 0zM49 33.4c0 .1 0 0 0 0zM48.7 33.7s-.1 0 0 0c-.1 0-.1.1 0 0 0 .1 0 .1 0 0zM49.5 33.6c-.1 0-.1 0 0 0 0 .1 0 .1 0 0 0 .1 0 0 0 0zM50.5 31s0 .1 0 0c0 .1.1.1 0 0 .1.1.1.1 0 0 .1 0 .1 0 0 0zM49.3 33.1s.1 0 0 0c.1 0 .1 0 0 0 .1 0 .1 0 0 0zM47.6 34.2c-.1 0-.1 0 0 0-.1 0-.1 0 0 0zM47.4 34.1s0 .1 0 0c0 .1 0 .1 0 0 0 .1 0 0 0 0zM47.4 34.1c0-.1 0-.1 0 0-.1-.1-.1-.1 0 0-.1 0-.1 0 0 0zM47.5 34.3c-.1 0-.1 0 0 0-.1 0-.1 0 0 0zM47.5 34.4s0 .1 0 0c0 .1 0 .1 0 0zM47.5 34.3zM47.4 34.5zM47.4 34.2c-.1 0-.1 0 0 0-.1 0-.1 0 0 0zM47.4 34.1zM47.4 34.4c.1 0 .1 0 0 0zM47.1 34.3c-.1 0-.1 0 0 0-.1 0-.1 0 0 0-.1.1-.1.1 0 0zM47.2 34.3s-.1-.1 0 0c-.1-.1-.1-.1 0 0-.1 0-.1 0 0 0-.1 0-.1 0 0 0zM47.7 34.2s-.1 0 0 0zM47.3 34.3s0 .1 0 0c0 .1 0 .1 0 0 .1 0 0 0 0 0zM47.5 34s0 .1 0 0c0 .1 0 .1 0 0zM47.7 34.1c0-.1 0-.1 0 0-.1 0-.1 0 0 0-.1 0 0 0 0 0zM47.1 34.4s.1 0 0 0c.1 0 .1 0 0 0zM47 34.3c-.1 0-.1 0 0 0-.1 0-.1 0 0 0-.1.1-.1.1 0 0zM47.9 34.3s-.1 0 0 0c-.1 0-.1 0 0 0zM48 34.3c-.1 0-.1 0 0 0-.1 0-.1 0 0 0zM47.8 34.3c-.1 0-.1 0 0 0-.1 0-.1.1 0 0-.1.1-.1.1 0 0zM47.7 34.4s0 .1 0 0c0 .1 0 .1 0 0zM47.6 34.4c.1 0 0 0 0 0zM46.9 34.1s0 .1 0 0c0 .1 0 .1 0 0 0 .1 0 .1 0 0zM47.3 34.2c0-.1 0 0 0 0-.1 0-.1 0 0 0zM46.8 34.1c-.1 0-.1 0 0 0zM47 34.4zM47 34.2zM46.8 34.4c0-.1 0-.1 0 0 0-.1 0-.1 0 0 0-.1 0-.1 0 0zM47 34.1zM46.6 34.3zM47.1 34.5zM46.7 34.4zM47.1 34c-.1 0-.1 0 0 0-.1 0-.1 0 0 0zM47.2 34.2zM46.9 34zM46.7 34zM47.1 34.1s-.1 0 0 0c-.1 0-.1 0 0 0zM46.9 34.2c-.1 0-.1 0 0 0-.1 0-.1 0 0 0-.1 0 0 0 0 0zM46.7 34.2zM48.4 34.1s0-.1 0 0zM47.2 34c0 .1 0 .1 0 0 0 .1 0 .1 0 0zM47 34c-.1 0-.1 0 0 0-.1 0 0 0 0 0zM47.2 34.5c.1 0 .1 0 0 0 .1 0 0 0 0 0zM47.8 34zM47.9 34s0-.1 0 0c0-.1 0-.1 0 0zM47.9 34c0 .1 0 .1 0 0 0 .1 0 .1 0 0zM47.7 34c-.1 0-.1 0 0 0-.1 0-.1 0 0 0-.1 0-.1 0 0 0zM47.8 34.1s-.1 0 0 0c-.1 0-.1 0 0 0-.1 0 0 0 0 0zM48.1 34.2s0-.1 0 0c0-.1 0-.1 0 0 0-.1 0-.1 0 0zM47.8 34.2c0-.1 0-.1 0 0zM48 34.1s-.1.1 0 0c0 .1 0 .1 0 0 0 .1 0 .1 0 0zM45.1 33.6zM46.7 33.9c0 .1 0 .1 0 0 0 .1 0 .1 0 0 0 .1 0 0 0 0zM46.6 33.9c-.1 0-.1.1 0 0-.1.1 0 .1 0 0 0 .1 0 .1 0 0zM46.8 34.3c-.1 0-.1 0 0 0-.1 0 0 0 0 0zM46.6 34zM46.5 34zM46.7 34.2c0-.1 0-.1 0 0 0-.1 0-.1 0 0zM46.8 34.1c-.1 0-.1 0 0 0-.1 0-.1 0 0 0zM46 33.9s0 .1 0 0c0 .1.1.1 0 0 .1 0 .1 0 0 0zM46 33.8s-.1 0 0 0c-.1 0-.1 0 0 0-.1.1-.1.1 0 0 0 .1 0 .1 0 0zM45.9 33.7c0 .1 0 0 0 0zM45.9 34zM45.7 33.9c0-.1 0 0 0 0zM46 34s-.1 0 0 0c-.1 0-.1 0 0 0zM45.5 33.6s-.1 0 0 0c-.1 0 0 0 0 0zM45.4 33.8c-.1 0-.1 0 0 0-.1 0-.1.1 0 0 0 .1 0 .1 0 0zM45.1 33.7zM45.9 33.8s-.1 0 0 0c-.1.1-.1.1 0 0 0 .1 0 .1 0 0 0 .1 0 0 0 0zM45.9 33.8zM45.3 33.8c0-.1 0-.1 0 0 0-.1 0 0 0 0zM45.5 33.8c0 .1 0 .1 0 0 0 0 .1 0 0 0zM45.6 33.8c.1 0 0 0 0 0zM46.1 34c.1 0 0 0 0 0zM45.8 33.9c-.1.1-.1.1 0 0 0 .1 0 .1 0 0 0 .1 0 0 0 0zM46.1 33.8c0-.1 0 0 0 0-.1 0-.1 0 0 0zM46.2 33.9zM45.6 33.9zM45.4 33.8zM46.3 34.2zM46.3 34.1zM46.5 34.2zM46.1 34c0 .1 0 .1 0 0 0 .1 0 0 0 0zM46.2 34.1c0-.1 0 0 0 0zM45.5 33.6s-.1 0 0 0c-.1 0 0 .1 0 0 0 .1 0 0 0 0zM45.8 33.8zM45.4 33.5zM45.4 33.9c0-.1 0-.1 0 0 0-.1 0 0 0 0zM45.5 33.7s.1 0 0 0zM45.4 33.7c-.1 0-.1 0 0 0-.1 0 0 0 0 0zM45.6 33.6zM45.2 33.7c0-.1 0-.1 0 0 0-.1 0-.1 0 0zM45.2 33.8s0-.1 0 0c0-.1 0-.1 0 0 0-.1 0-.1 0 0zM45.7 33.6s0-.1 0 0c0-.1 0-.1 0 0 0-.1 0 0 0 0zM45.7 33.8c0-.1 0-.1 0 0zM45.5 33.5zM45.5 33.4s-.1 0 0 0c-.1 0-.1 0 0 0zM45.7 33.7c0-.1 0-.1 0 0-.1-.1-.1-.1 0 0-.1-.1-.1-.1 0 0-.1 0-.1 0 0 0zM45.4 33.7c0-.1 0-.1 0 0 0-.1 0-.1 0 0 0-.1 0-.1 0 0zM45.3 33.5c-.1 0-.1.1 0 0-.1.1 0 .1 0 0 0 .1 0 0 0 0zM45.8 33.7c0-.1 0-.1 0 0 0-.1 0-.1 0 0 0-.1 0 0 0 0zM45.6 33.5zM45.7 33.7c-.1 0-.1 0 0 0zM46.4 33.9c0-.1-.1-.1 0 0-.1 0-.1 0 0 0-.1 0-.1 0 0 0zM47.2 34.1c-.1 0-.1 0 0 0-.1 0-.1 0 0 0-.1 0-.1 0 0 0zM46.4 33.9c0 .1 0 .1 0 0 0 .1 0 .1 0 0 0 .1 0 0 0 0zM46.9 34.4c0 .1 0 .1 0 0 0 .1 0 .1 0 0zM46.3 34s0-.1 0 0c0-.1 0-.1 0 0-.1-.1-.1-.1 0 0-.1 0 0 0 0 0zM46.5 34.2s.1-.1 0 0c0-.1 0-.1 0 0 0-.1 0-.1 0 0 0-.1 0 0 0 0zM46.3 34.1c0-.1 0-.1 0 0 0-.1 0-.1 0 0 0-.1 0-.1 0 0zM46.4 34.1c.1 0 .1 0 0 0zM50.2 31.4zM50.3 31.2zM50.2 31.1zM50.4 31.3c-.1.1-.1.1 0 0 0 .1 0 .1 0 0 0 .1 0 .1 0 0zM50.2 31.4s.1 0 0 0c.1 0 .1 0 0 0zM50.3 31.5zM50.2 31.2c0 .1 0 .1 0 0 0 .1 0 .1 0 0 0 .1 0 .1 0 0zM50.5 31.2c-.1.1-.1.1 0 0 0 .1 0 .1 0 0 0 .1 0 .1 0 0zM50.2 31.5zM50.5 31.5z"/><path d="M50.3 30.9s-.1 0 0 0c-.1.1-.1.1 0 0 0 .1 0 .1 0 0zM50.4 31.1c0 .1 0 .1 0 0 0 .1 0 .1 0 0 0 .1 0 0 0 0zM50.5 30.7z"/><path d="M50.3 30.8c-.1 0-.1 0 0 0-.1.1 0 .1 0 0 0 .1 0 .1 0 0zM50.4 30.9zM50.4 30.8s0 .1 0 0c0 .1 0 .1 0 0 0 .1 0 .1 0 0 0 .1 0 .1 0 0zM50.1 31.3c0 .1 0 .1 0 0 0 .1 0 .1 0 0zM50.2 30.8s0 .1 0 0c0 .1 0 .1 0 0 0 .1 0 .1 0 0 0 .1 0 0 0 0zM50.4 30.8zM50.2 31.1s0 .1 0 0c0 .1 0 .1 0 0 0 .1 0 .1 0 0 0 .1 0 0 0 0zM50.3 31c0 .1.1.1 0 0 .1.1.1 0 0 0 .1 0 0 0 0 0zM50.3 31.2zM50.2 30.8z"/></symbol><symbol id="Citroen" viewBox="0 0 95 50"><path d="M46.7 15.9c6.4 0 21.9 13.3 23.8 15 .1.1.3.3.6.2.5-.1.5-.8.5-.8s.1-1.7.1-3.4c0-2.1-1.7-4-1.7-4S52.8 3.8 46.7 3.8 23.3 22.9 23.3 22.9s-1.7 1.9-1.7 4c0 1.7.1 3.4.1 3.4s0 .7.5.8c.3 0 .5-.1.6-.2 2-1.7 17.5-15 23.9-15"/><path d="M46.7 33.5c6.4 0 21.9 13.3 23.8 15 .1.1.3.3.6.2.5-.1.5-.8.5-.8s.1-1.7.1-3.4c0-2.1-1.7-4-1.7-4S52.8 21.4 46.7 21.4 23.3 40.5 23.3 40.5s-1.7 1.9-1.7 4c0 1.7.1 3.4.1 3.4s0 .7.5.8c.3 0 .5-.1.6-.2 2-1.8 17.5-15 23.9-15"/></symbol><symbol id="Daewoo" viewBox="0 0 95 50"><path d="M74.1 14.7H61c-4.8 2-8.4 9.3-8.4 9.3H52c1.4-4.9 5.9-9.5 5.9-9.5h-9.6l-.4 9.4H47l-.4-9.4H36.4c6.2 5.8 6.8 9.4 6.8 9.4h-.6c-3.5-6.7-9.5-9.2-9.5-9.2H19.7c-2.9 0-5 1.3-2.8 5.9 1.5 3.1 2.8 6.3 8.8 11 7.1 5.6 17.1 5 21.3 5 4.2 0 11.9.5 19.5-3.3 7.5-3.7 8.9-8.5 11.3-13.4 2.9-5.8-3.7-5.2-3.7-5.2zm-53.6 5.4s-.7-2.4 1.3-2.4 9.3-.3 12 1.6c2.4 1.7 6.9 5 6.9 14.3 0 0-15.1-.5-20.2-13.5zm53.4 0c-5.1 13-20.2 13.5-20.2 13.5 0-9.3 4.4-12.6 6.9-14.3 2.7-1.9 10-1.6 12-1.6 1.9 0 1.3 2.4 1.3 2.4z"/></symbol><symbol id="Ford" viewBox="0 0 95 50"><path d="M75.3 14.9c-7.7-3-17-4.5-27.8-4.4-10.9 0-20.2 1.6-27.8 4.7-7.7 3-11.5 6.6-11.5 10.6s3.9 7.5 11.6 10.4c7.7 2.9 17 4.3 27.8 4.3s20.1-1.6 27.7-4.6c7.6-3 11.5-6.6 11.5-10.6 0-3.9-3.8-7.5-11.5-10.4zm-1.9 20.7C66.3 38.5 57.7 40 47.6 40s-18.7-1.4-25.9-4.1c-7.2-2.8-10.7-6.1-10.8-10 0-3.9 3.5-7.3 10.6-10.3s15.8-4.5 25.9-4.5 18.8 1.4 25.9 4.3C80.5 18.2 84 21.6 84 25.5c.1 3.8-3.5 7.2-10.6 10.1z"/><path d="M83 23.9c-.2-1-.7-1.8-1.3-2.6-.8-.9-1.6-1.7-2.6-2.4-1.2-.8-2.5-1.6-3.9-2.2-1.5-.7-3.1-1.3-4.8-1.8-1.9-.6-3.8-1.1-5.8-1.5-1.2-.3-2.5-.5-3.7-.7-2-.2-4-.4-6.1-.5l-7.2-.3c-1.2 0-2.3 0-3.5.1s-2.5.2-3.7.3c-2.2.2-4.5.5-6.7.9-2 .4-4 .8-6.1 1.3-1.8.5-3.5 1-5.3 1.7-1.5.6-3 1.3-4.3 2.1-1.2.7-2.3 1.4-3.3 2.4-.8.7-1.5 1.5-2.1 2.4-.3.4-.5.9-.6 1.3-.1.5-.1.9-.1 1.4 0 .4.1.9.2 1.3.1.5.3.9.6 1.3.6.9 1.4 1.7 2.1 2.4 1 .9 2.1 1.7 3.3 2.3 1.4.8 2.9 1.4 4.4 2 1.8.7 3.5 1.2 5.3 1.7 2 .5 4.1.9 6.1 1.2 2.3.4 4.5.6 6.7.9 1.2.1 2.5.2 3.7.2 3.6.1 7.2 0 10.7-.4 2-.2 4-.4 6.1-.7 1.3-.2 2.5-.4 3.7-.8 1.9-.4 3.9-1 5.7-1.6 1.6-.5 3.2-1.1 4.8-1.9 1.4-.6 2.7-1.4 3.9-2.3.9-.7 1.8-1.5 2.6-2.4.6-.7 1-1.6 1.3-2.5.2-.9.1-1.8-.1-2.6zm-48.6 7.4c-.6.7-1.3 1.2-2 1.6-.7.4-1.3.7-1.9.8-.6.2-1.3.1-2-.1-.7-.3-1.2-.6-1.5-.8-.3-.3-.6-.7-.9-1.1-.3-.5-.4-1.1-.4-2 .1-.8.2-1.7.6-2.5.2-.4.5-.9.8-1.3.4-.4.8-.8 1.2-1.3l.3-.2h.5l.3.2.2.3c.1.1 0 .3-.1.6-.4.4-.7.8-1.1 1.2-.2.2-.3.4-.5.6-.1.2-.3.4-.3.6l-.1.6.1.6c.1.4.2.7.4 1 .2.3.4.4.5.6.6.3 1.2.3 1.8.1.6-.2 1.3-.5 1.9-1 .7-.5 1.3-1.2 2-2 .5-.6 1-1.3 1.4-1.9.5-.7.9-1.4 1.4-2.1-.2.1-.4.2-.7.3l-.6.2-.6.2-.6.2h-.3l-.2-.2.3-.6c.6-.3 1.1-.5 1.7-.8l.9-.3c.3-.1.7-.2 1-.2.8-1 1.6-2 2.4-2.9.9-1 1.8-2 2.8-2.9-1-.2-1.9-.4-2.9-.6-.9-.1-1.7-.2-2.6-.1-.8 0-1.6.2-2.3.5s-1.4.7-2 1.2c-.4.3-.7.8-1 1.3-.1.2-.1.5-.1.8s.1.5.3.6c.2.2.5.3.8.3s.6-.1.9-.3c.7-.5 1.4-1 2.1-1.6h.4c.1.2.1.4-.1.7-.3.6-.7 1.3-1.2 1.8-.4.5-.8.9-1.3 1.3-.5.3-1 .5-1.5.5s-1.1-.1-1.5-.5c-.4-.3-.7-.7-.8-1.2-.1-.6-.1-1.2 0-1.7.1-.7.4-1.3.8-1.9.5-.7 1.2-1.3 1.9-1.8.7-.4 1.4-.7 2.2-.9s1.7-.3 2.6-.4c1-.1 2.1 0 3.1.1 1 .2 2.1.3 3.2.6 1.3.2 2.6.4 3.9.5 2.2.1 4.4.2 6.5.1 1.2-.1 2.3-.1 3.5-.2l.5.1.2.2c.1.1 0 .3-.2.6-.5.5-1 .9-1.6 1.2-.8.4-1.6.7-2.5.8-1.1.1-2.2.1-3.3 0-1.4-.2-2.7-.4-4.2-.8-.8-.2-1.6-.5-2.4-.7l-.5.4c-.7.6-1.3 1.3-1.9 2-.7.9-1.4 1.9-2.1 2.8.4 0 .9-.1 1.3-.1h.7c.2 0 .5 0 .7.1 0-.4.1-.9.2-1.4l.2-.5c.1-.3.3-.4.4-.6l.4-.3H44.5l.4.2.4.4.1.3v.5c-.2.5-.4 1-.7 1.4-.1.2-.3.4-.6.5l.1.3.1.1.1.2-.1.2-.1.2h-.3l-.2-.1-.2-.2-.2-.3-.1-.4h-.9c-.3 0-.6.1-1 .1-.3 0-.6.1-.9.1-.3 0-.6.1-.9.1-1.1 2-2.3 4-3.5 6-.5.7-1 1.4-1.6 2zm33-.1c-.6.7-1.3 1.4-2.1 1.9-.5.3-1.1.5-1.6.5-.4 0-.9-.2-1.2-.5-.2-.2-.3-.4-.5-.6l-1 .7c-.4.2-.8.2-1.2.2-.6.1-1.2-.1-1.7-.5-.5-.3-.7-.7-.9-1.2-.1-.6-.2-1.2-.1-1.9-.5.2-1.1.4-1.6.6-.4.1-.8.1-1.3 0-.4 0-.8-.2-1.2-.4l-.3-.2-.3-.4-.1-.5-.3.6c-.8 1.4-1.5 2.9-2.4 4.4h-2.1c1-1.9 2-3.8 2.9-5.7.2-.4.3-.8.4-1.3v-.5l-.4-.1c-.3.2-.5.4-.8.6-.5.5-1 1-1.4 1.6-.6.8-1.3 1.6-1.9 2.4-.6.8-1.2 1.5-1.8 2.1-.3.3-.7.5-1.1.7-.4.2-.8.2-1.2.3-.4 0-.8-.1-1.2-.2l-.6-.3-.4-.4-.4-.6-.2-.6-.3.2-.3.3-.4.3-.3.1-.3.1-.5-.3c-.1-.3-.1-.5.1-.7.4-.4.7-.8 1.1-1.2l.9-1.5c.2-.4.4-.8.6-1.1.2-.5.5-.9.8-1.2.4-.4.8-.8 1.3-1.1.5-.3 1-.7 1.6-.9l.5-.2h.2c.2.1.4.2.4.4v.3l-.1.3-.2.3h-.2l-.1.1c-.6.6-1.3 1.3-1.8 2-.4.5-.6 1-.8 1.6-.1.4-.1.8 0 1.1.1.3.2.6.4.7.3.1.6.2.9.1.4-.2.8-.4 1-.6l.4-.4c.1-.2.3-.5.4-.7.2-.3.3-.6.4-.9.1-.3.2-.7.2-1.1s.1-.8.2-1.1c0-.5 0-1 .1-1.5l.2-.3.3-.2h.4l.3.1.2.2.1.3.1.5v1.6c.9-.9 1.8-1.7 2.8-2.5.3-.3.7-.5 1.1-.5.3 0 .7 0 1 .2.2.2.4.3.5.6.1.3.3.5.3.8l.9-.9.5-.4c.2-.1.5-.2.7-.2.4 0 .7 0 1.1.1.3.1.5.3.7.6.1.2.2.5.2.8 0 .4-.1.6-.3.9l-.7.8h-.6l-.5-.3-.2-.6v-.3l-.3-.1h-.2c-.2.2-.3.5-.4.7-.1.3-.1.5-.1.8.1.4.3.7.6.9.4.3.9.3 1.3.2.5-.1 1-.3 1.5-.7.3-.2.6-.4.9-.7.3-.2.5-.5.8-.7.5-.5 1-.9 1.7-1.3l.4-.3c.1-.1.3-.2.6-.3.3-.1.6-.2 1-.1.4 0 .7.1.9.2.2.2.4.3.6.5s.4.4.5.6l3.5-5.8h2.3l-6.1 10.4-.2.4v.4l.1.2.2.3c.2.1.4.1.6 0 .3-.2.7-.5 1-.8.2-.2.5-.4.7-.6l.5-.6.4-.6c.2-.2.3-.5.5-.6l.3-.3.2.1.2.1.2.2c-.5.9-1 1.5-1.5 2.1z"/><path d="M62.3 26.9c-.1-.1-.3-.1-.6-.1-.2 0-.5.1-.7.3l-.3.3-.1.1-.2.2c-.4.5-.7 1.1-1 1.7-.2.4-.3.8-.3 1.2l.1.5c.1.2.3.4.6.4.2.1.5.1.7 0l.5-.3c.4-.5.8-1 1.1-1.5.3-.4.5-.9.6-1.4s.1-.9 0-1.2l-.4-.2zM44.8 21c.2-.8-1.6-1.4-1.1 1.1 0 0 .9-.3 1.1-1.1z"/></symbol><symbol id="Honda" viewBox="0 0 95 50"><path d="M74.1 33.2c-.5 3.3-.8 7.6-3.2 10.1-.8.9-7.3 4.7-7 1.8 1.2-9 1.8-18.1 2.4-27.2.2-3.8.4-7.6.4-11.4.1-.6-.3-2.2.7-2.3 1.9.6 4 1.1 5.3 2.8 2.4 3.2 2.1 8 2.2 11.7.2 4.8-.1 9.7-.8 14.5zM61.4 4.1c-1.3 4.8-2.8 11.1-4.2 15.9-1.1 3.8-2.3 8.8-7 9.3-.7.1-1.4.1-2.2.1s-1.5-.1-2.2-.1c-4.7-.5-6-5.4-7-9.3-1.4-4.8-2.9-11.1-4.2-15.9-.2-.8.1-.6 1.8-.9 7.7-.6 15.5-.6 23.2 0 1.7.2 2.1.1 1.8.9zm-5 42.7c-.4.1-1.7.1-3.1.1-1.7.1-3.5.1-5.3.1s-3.6 0-5.3-.1c-1.4 0-2.7 0-3.1-.1s-.8-.1-.7-.5 1.8-5.9 1.8-5.9c1.1-3.6 1.2-3.9 4.1-4.4 2.1-.4 4.2-.4 6.3 0 2.9.6 3 .8 4.1 4.4 0 0 1.7 5.5 1.8 5.9s-.2.5-.6.5zM25 43.3c-2.4-2.6-2.7-6.8-3.2-10.1-.6-4.8-.9-9.6-.8-14.5 0-3.8-.2-8.6 2.2-11.7 1.3-1.7 3.4-2.2 5.3-2.8 1 0 .6 1.6.7 2.3.1 3.8.3 7.6.4 11.4.6 9.1 1.2 18.1 2.4 27.2.3 2.8-6.2-.9-7-1.8zm53.9-28.7c-.2-3.6-.7-7.4-3.4-10.1-2.4-2.4-5.9-3.1-9.2-3.5C54.2-.3 41.9-.3 29.7 1c-3.3.4-6.7 1.1-9.2 3.5-2.7 2.6-3.2 6.5-3.4 10.1-.2 4.1-.1 8.2.2 12.4.2 4.1.8 8.1 1.7 12.1.4 1.9 1.1 3.6 2.2 5.2a9.7 9.7 0 0 0 4.2 3.3c3.5 1.6 7.6 1.7 11.4 2 3.7.2 7.4.4 11.2.4s7.5-.2 11.3-.4 7.9-.4 11.4-2c1.7-.7 3.1-1.9 4.2-3.3 1-1.6 1.7-3.4 2.2-5.2.9-4 1.5-8 1.7-12.1.2-4.1.3-8.3.1-12.4z"/></symbol><symbol id="Hyundai" viewBox="0 0 95 50"><path d="M47.9 6.6C27.5 6.6 11 14.8 11 24.8 10.9 34.8 27.5 43 47.9 43s36.9-8.2 36.9-18.2c0-10.1-16.6-18.2-36.9-18.2zm-3.5 4c4.2-1.5 16.7 0 21.6 2.3 1.6 1.5-6.9 6.3-17.1 8.4-14.5 2.9-7.6-8.2-4.5-10.7zM19.5 32.2c-3.2-2.3-9.4-8.8.9-15.5 5.4-3.2 8.5-3.9 12.3-4.7 1.8-.4 3.1.1 1.5 1.4-3.5 3.6-10.6 15.4-11.2 18-.6 1.8-1.6 2.2-3.5.8zm29.7 7.5c-6.1.6-19.6-1.4-19.9-3.1.3-4.2 21.5-11.2 25.4-7.3 1.6 3-1.5 10.2-5.5 10.4zm31-12.2c-1.6 3.6-6.8 7.6-17.8 10.3-1.7.4-2.3-.6-1.2-1.6 1.8-1.1 10.6-15.8 11.7-18.7.6-1.5 1.9-.9 2.7-.3 3.4 2.2 6.1 5.9 4.6 10.3z"/></symbol><symbol id="Infinity" viewBox="0 0 95 50"><path d="M30.7 34.2c-2.2-.6-4.4-1.5-6.5-2.6-1.9-1-3.6-2.2-5.1-3.8-3.6-4.3-2.9-8.4 1.3-12 6.6-5.8 19.1-7.5 28-7.5 5.3 0 10.6.7 15.7 2.1 2.2.6 4.4 1.4 6.5 2.4 2.7 1.3 5.8 3.3 7.3 6 .6 1 .9 2.2 1 3.4.1 3.6-2.7 6.3-5.3 8-.9.6-1.8 1.1-2.8 1.6-2.1 1-4.2 1.8-6.5 2.4-1.4-1.7-2.7-3.4-4.1-5.1l-10-12.5c-.6-.9-1.3-1.7-2.1-2.5-.3.6-5.7 6.5-6.5 7.6s-4.3 4.9-5.4 6.2l-5.5 6.3zm5.2 8.6c.9-1.6 3.4-7.4 4.5-9.6 1.1-2.3 7.2-15.6 7.6-16L59.2 43c8.3-1.2 20.3-5.3 24.3-12.5 5.2-9.5-4.9-17-14-20.1C62.8 8.2 55.7 7 48.5 7c-7.4 0-14.9.9-21.3 3.2-4.3 1.4-8.4 3.6-11.8 6.5-4.4 4.1-5.9 9.7-2.2 15 .4.6.9 1.2 1.4 1.7 1 1.1 2.1 2 3.4 2.8 2.5 1.7 5.3 3.1 8.2 4.1 1.5.6 8 2.6 9.7 2.5z"/></symbol><symbol id="Isuzu" viewBox="0 0 95 50"><path d="M71.9 6.3C61.6-5.3 41.4 1 30.5 10.3 17.2 22.6 15.1 37.1 22 44.9c5.9 5.5 14.2 5.2 21.3 4.5 5.7-1.1 12.1-3.6 17.8-8.1 4.7-3.7 8.9-8.7 12.1-15.5 4.7-9.9-.3-18.4-1.3-19.5zM60.3 39.8C57.4 42.4 38.8 54 26.6 42c-10.1-9.9-1.1-25.4 4.4-30 1-.5 6.8-7.1 17.4-8.5C56.3 2.5 63 4.6 67 9.1c2.1 2.3 3.5 5.3 3.9 8.8 1.3 10.4-7.7 19.2-10.6 21.9z"/><path d="M34.9 12.5v25.3h10.6V25.5c0-1.7-.3-3.1-2.3-4.9l-8.3-8.1zM58.8 12.5v25.3H48.2V25.5c0-1.7.3-3.1 2.3-4.9l8.3-8.1z"/></symbol><symbol id="Jeep" viewBox="0 0 95 50"><path d="M28.5 26.7c0 6.8-3.1 9.4-9.4 9.4-6.3 0-9.1-3.5-9.1-8.8v-3.4h6.9v2.8c0 1.9 0 3.7 2.1 3.7 2 0 1.9-2.4 1.9-3.5V11h7.7v15.7h-.1zM35.4 24.5c.3-1.9 1.3-2.9 3.1-2.9 1.6 0 2.8 1.3 2.8 2.9h-5.9zm11.9 3.6c0-7-2.9-10.9-9.3-10.9-5.2 0-8.6 4.2-8.6 9.4 0 6 3.9 9.4 9.1 9.4 3.8 0 7.2-1.8 8.4-5.6h-5.8c-.5.8-1.6 1.3-2.6 1.3-2 0-3-1.4-3.2-3.5h12v-.1zM53.7 24.5c.3-1.9 1.3-2.9 3.1-2.9 1.6 0 2.8 1.3 2.8 2.9h-5.9zm11.9 3.6c0-7-2.9-10.9-9.3-10.9-5.2 0-8.6 4.2-8.6 9.4 0 6 3.9 9.4 9.1 9.4 3.7 0 7.2-1.8 8.4-5.6h-5.8c-.5.8-1.6 1.3-2.6 1.3-2 0-3-1.4-3.2-3.5h12v-.1zM72.2 26.6c0-2.1.4-4.4 2.7-4.4 2.2 0 2.8 2.2 2.8 4.4 0 2.1-.5 4.4-2.8 4.4-2.2 0-2.7-2.3-2.7-4.4zm-6 14.7h6.2v-7.7h.1c.9 1.5 2.6 2.4 4.5 2.4 5.5 0 6.9-5.1 6.9-9.3 0-4.5-2.1-9.5-6.8-9.5-3 0-4 1.3-4.8 2.4v-2h-6v23.7h-.1z"/></symbol><symbol id="Kia" viewBox="0 0 95 50"><path d="M47.1 5.8c-20.2 0-36.7 8.4-36.7 18.8s16.4 18.8 36.7 18.8c20.2 0 36.7-8.4 36.7-18.8S67.4 5.8 47.1 5.8zm.2 33.4c-18.5 0-33.5-6.5-33.5-14.4 0-8 15-14.4 33.5-14.4s33.5 6.5 33.5 14.4-15 14.4-33.5 14.4z"/><path d="M59.2 17.2V17c0-.2-.2-.4-.4-.4h-.5s-.1 0-.1-.1v-.9s0-.1.1-.1h6.8c.2 0 .4 0 .5.3l6 17.4v.1c0 .2-.1.3-.3.3H67c-.2 0-.4-.2-.5-.4L62.8 22c0-.1-.1-.2-.2-.2s-.2.1-.2.2l-3.7 11.2c-.1.2-.3.4-.5.4h-4.3c-.2 0-.3-.1-.3-.3v-.1l5.6-16zM44.9 17.2V17c0-.2-.2-.4-.4-.4h-.6s-.1 0-.1-.1v-.9s0-.1.1-.1H49.6c.2 0 .4.2.4.4v17.3c0 .2-.2.4-.4.4h-4.4c-.2 0-.4-.2-.4-.4V17.5l.1-.3zM41.2 33.7h-5c-.2 0-.5-.2-.7-.4l-5-6.9c-.1-.1-.1-.1-.1-.2h-.1c-.1 0-.2.1-.2.2V33.3c0 .2-.2.4-.4.4h-4.2c-.2 0-.4-.2-.4-.4V17c0-.2-.2-.4-.4-.4h-.6s-.1 0-.1-.1v-.9s0-.1.1-.1h5.5c.2 0 .4.2.4.4V21.6c0 .1.1.2.2.2h.1c.1 0 .1-.1.1-.2l.7-1 3.5-4.8c.2-.2.4-.4.7-.4h4.8c.2 0 .3.1.3.3 0 .1 0 .1-.1.2L35 23.6c.1.3 0 .4 0 .5s0 .1.1.2l6.4 8.8c.1.1.1.1.1.2 0 .2-.2.4-.4.4z"/></symbol><symbol id="Landrover" viewBox="0 0 95 50"><path d="M47.5 4.1c-20.9 0-37.9 9.3-37.9 20.7 0 11.4 17 20.6 37.9 20.6s37.9-9.3 37.9-20.6c0-11.4-17-20.7-37.9-20.7zM71 39.8c-1.6.7-3.4 1.4-5.2 1.9-2.3.7-4.8 1.3-7.4 1.7-1.8.3-3.6.5-5.5.7-1.7.1-3.5.2-5.3.2-1.6 0-3.2-.1-4.7-.2-.5 0-1-.1-1.5-.1-1.3-.1-2.6-.3-3.8-.5-1.5-.2-3-.5-4.4-.8-.8-.2-1.5-.4-2.2-.6-2.8-.8-5.3-1.7-7.6-2.8-7.6-3.6-12.5-8.8-12.5-14.7 0-5.8 4.8-11.1 12.5-14.7 2.3-1.1 4.9-2 7.6-2.8.7-.2 1.5-.4 2.2-.6 1.4-.3 2.9-.6 4.4-.8 1.3-.2 2.5-.3 3.8-.5.5 0 1-.1 1.5-.1 1.5-.1 3.1-.2 4.7-.2 1.8 0 3.5.1 5.3.2 1.9.1 3.7.4 5.5.7 2.6.4 5.1 1 7.4 1.7 1.8.8 3.6 1.5 5.2 2.2 8.1 3.6 13.3 9 13.3 15.1 0 6-5.2 11.4-13.3 15z"/><path d="M71 10.8c-1.6-.7-3.4-1.4-5.2-2-2.3-.7-4.8-1.3-7.4-1.7-1.8-.3-3.6-.5-5.5-.7-1.7-.1-3.5-.2-5.3-.2-1.6 0-3.2.1-4.7.2-.5 0-1 .1-1.5.1-1.4.2-2.6.3-3.9.5-1.5.2-3 .5-4.4.8-.8.2-1.5.4-2.2.6-2.8.8-5.3 1.7-7.6 2.8-7 3.4-11.4 8.2-11.4 13.5 0 5.3 4.4 10.1 11.4 13.5 2.3 1.1 4.9 2.1 7.6 2.8.7.2 1.5.4 2.2.6 1.4.3 2.9.6 4.4.8 1.3.2 2.5.3 3.8.5.5 0 1 .1 1.5.1 1.5.1 3.1.2 4.7.2 1.8 0 3.5-.1 5.3-.2 1.9-.1 3.7-.4 5.5-.7 2.6-.4 5.1-1 7.4-1.7 1.9-.6 3.6-1.2 5.2-2 7.5-3.4 12.3-8.4 12.3-13.9S78.5 14.2 71 10.8zm-5.9 6.1h5.4v2l-4.7 1.6-.2.1-.4-.6.5-.2 2.6-.9H65v-2zm-6.9-3.7h.1c1 0 1.8.1 2.4.3.7.2 1.2.6 1.5 1 .3.5.5 1 .4 1.7 0 .7-.2 1.4-.6 2.3-.4 1-.9 1.9-1.6 2.7-.5.7-1.3 1.2-2.2 1.7-.2.1-.3.2-.5.2-1.1.5-2.6.7-4.3.7H51l1.6-4.1 2.7-6.7h2.9zm-12.8 0h2.8l1 5.7.7-2 1.5-3.6h3l-1.6 4.1-2.7 6.6H47l-.7-5.7-2.4 5.7H41l.3-.7 1.5-3.7 2.6-6.4zm-7.9.9l.6-.9h3.5l-.3 2.9-.7 7.9h-2.9v-1.7H34.6l-.7 1.7h-3.3l.3-.5 2.2-3.2 4.4-6.2zm-9.3-.9h2.9l-.2.8-2.9 7.1h2.7L29.5 24h-5.7l4.4-10.8zm-2.3 17.9h-5.4v-2l2.7-.9 2.3-.8.3.6-2.6 1-.6.2H25.9v1.9zm8.4.6l.7 4.4h-3.7l-.2-3.5-.2.5-1.2 3h-3.3l4.4-10.8H34.9c.8 0 1.5.1 2 .4.3.2.5.4.7.7.1.2.1.3.2.5.1.4 0 .8-.2 1.4-.1.2-.2.5-.3.7-.6 1.4-1.6 2.3-3 2.7zm13.5-1c-.4 1-1 2-1.8 2.8-.8.9-1.7 1.5-2.7 2.1-.2.1-.3.2-.5.2-.5.2-1 .4-1.5.5-.3 0-.6.1-.8.1-.9 0-1.6-.3-2.2-.8-.4-.3-.7-.8-.8-1.3-.1-.2-.1-.5-.2-.8-.1-.6 0-1.2.2-1.8.1-.3.2-.7.3-1 .3-.8.7-1.5 1.3-2.2.5-.7 1.1-1.3 1.8-1.8.1-.1.3-.2.4-.3.5-.3 1-.6 1.5-.8.1 0 .1-.1.2-.1.7-.3 1.4-.4 2.1-.4.7 0 1.3.2 1.8.4.5.3.8.7 1.1 1.2.2.5.3 1.1.3 1.8s-.1 1.5-.5 2.2zm4.2 5.4h-3.1l.9-10.8h3.6l-.6 3.9v.1l-.6 2.6h.1l.5-.9 1-1.6 2.7-4H60l-1.7 2.3-5.5 7.3-.8 1.1zm10.9 0h-6.3l1.7-4.1 2.7-6.7h6.2l-1.2 3h-2.9l-.4 1h2.7l-1.1 2.8h-2.7l-.5 1.1h3l-1.2 2.9zM75.1 29c-.6 1.4-1.5 2.3-2.9 2.7l.7 4.4h-3.7l-.2-3.5-1.5 3.5h-3.3l1.5-3.8 2.9-7h4.2c.8 0 1.5.1 2 .4.5.3.7.7.8 1.2 0 .6-.1 1.3-.5 2.1z"/><path d="M38.3 19.6l.3-3.2-1.1 1.7-.9 1.4h.9zM58.3 19.4c.2-.3.3-.6.5-1 .3-.7.3-1.2.1-1.5-.1-.2-.3-.3-.6-.4-.2-.1-.5-.1-.9-.1l-1.7 4.2c.8 0 1.4-.2 1.8-.5.4-.1.6-.3.8-.7zM33.6 28.1h-.7l-.9 2.1h.6c.2 0 .3 0 .5-.1.4-.2.7-.5.9-1.1.1-.3.1-.5.1-.7-.1-.1-.2-.2-.5-.2zM71.5 28.1h-.7l-.9 2.1h.6c.2 0 .3 0 .5-.1.4-.2.7-.5.9-1.1.1-.3.1-.5.1-.7-.1-.1-.2-.2-.5-.2zM43.7 28.7c-.3 0-.6.1-.8.2-.2.1-.4.2-.5.4-.4.3-.7.7-1 1.2 0 .1-.1.2-.1.3-.2.6-.3 1-.1 1.4.1.2.1.3.2.4.2.1.4.2.6.2.3 0 .6-.1.8-.2.2-.1.3-.2.5-.4.5-.4.8-.9 1.1-1.5.2-.6.3-1.1.1-1.5-.1-.3-.4-.5-.8-.5z"/></symbol><symbol id="Lexus" viewBox="0 0 95 50"><path d="M49.1 7.3c-2.9 3.6-11.1 15.3-12 16.9-1.8 2.9-2 4.3-2 5.3-.2 1.5.3 2.9 1.4 3.9 2.5 2.2 5.9 1.9 9 1.9h25.2c.8.1 1.6-.4 2-1.1 1.9-2.9 2.9-6.2 2.9-9.6C75.5 18 71.3 9.8 60.8 6l-1.2 1.7c8.3 4 11.8 9.3 11.8 16.7 0 2.2-.6 4.3-1.7 6.1H45.2c-1.5 0-1.7-1.7-1.2-2.7 2.1-3.8 4.4-7.5 7-11 2.5-3.4 4.9-6.5 7.5-9.8.7-.9.2-1.8-1.2-2.1-3.1-.7-6.3-1-9.5-1-20 .1-27.3 11.9-27.3 20.6C20.5 34 27.9 45 48 45c11.2 0 18.4-3.7 22.7-8.4h-4.3c-3.7 3.5-10 6-18.4 6-17 0-23.3-9.8-23.3-18.2.1-7.5 6.9-17.9 23.7-18.2.4-.1.8.2.8.6.1.2 0 .4-.1.5z"/></symbol><symbol id="Mazda" viewBox="0 0 95 50"><path d="M70.7 10.7c-.2-.2-.4-.5-.6-.7-5.7-6.1-15-7.5-22.8-7.5-7.9 0-17.5 1.3-23.1 7.8-.1.1-.2.2-.3.4-2.8 3.3-4.4 8-4.4 14.3 0 19.4 15.8 22.5 27.8 22.5 12.1 0 27.9-3.1 27.9-22.5 0-6.3-1.7-11-4.5-14.3zm-41.5 3.1C32.9 8 40.1 6.6 47.4 6.6c7.3 0 14.2 1.3 18 7 0 .1.1.3.2.4-6.5 3.8-13.9 3.9-18.3 13.5-4.8-9.3-12.1-9.3-18.5-13 .1-.2.3-.5.4-.7zm18.1 29.8c-10.7.1-20.9-3-20.9-18.5 0-1.2 0-2.3.2-3.3.1-.2.1-.4.2-.7l10.8 3.6c4.3 1.8 7.1 4.3 9.7 9.9 2.6-5.6 5.3-8.4 9.7-10.2 3.6-1.3 7.3-2.6 10.9-3.9 0 .1 0 .2.1.3.2 1.2.3 2.8.3 4.3 0 15.4-10.2 18.6-21 18.5z"/></symbol><symbol id="Mercedes" viewBox="0 0 95 50"><path d="M46.7.5C33 .5 22 11.6 22 25.3 22 38.9 33 50 46.7 50s24.7-11.1 24.7-24.7C71.4 11.6 60.4.5 46.7.5zM26.5 13.6C30.6 6.5 38.2 2 46.4 1.9l-3.2 21.2-16.9 13.7c-4-7.2-4-16 .2-23.2zm20.3 35.1c-8.3 0-15.9-4.3-20.2-11.4L46.7 29l20.2 8.2c-4.2 7.1-11.8 11.5-20.1 11.5zm3.3-25.3L47 1.9c8.2.1 15.8 4.6 19.9 11.7s4.2 15.9.3 23L50.1 23.4z"/></symbol><symbol id="Mini" viewBox="0 0 95 50"><path d="M95 13.7H65C58.9 4 46.1 1.1 36.3 7.2a20.8 20.8 0 0 0-6.6 6.6H0l3 3.1h25.2c-.5 1.1-.8 2.3-1.1 3.4H6.4l3 3.1h17.1c0 .6-.1 1.1-.1 1.7s0 1.2.1 1.7H12.9l3 3.1h11.2c.3 1.2.6 2.3 1.1 3.4h-8.9l3 3.1h7.5c6.1 9.7 19 12.6 28.7 6.5 2.6-1.7 4.8-3.9 6.5-6.5h7.6l3-3.1h-9c.5-1.1.8-2.3 1.1-3.4H79l3-3.1H68.2c0-.6.1-1.2.1-1.7s0-1.1-.1-1.7h17.3l3-3.1H67.7c-.3-1.2-.6-2.3-1.1-3.4H92l3-3.2zM47.5 43c-9.9.1-18-7.9-18-17.8-.1-9.9 7.9-18 17.8-18 9.9-.1 18 7.9 18 17.8v.1c0 9.8-7.9 17.8-17.8 17.9zm-9.2-15.4l-2.4-7.4h-2.8v9.5h2v-7l2.1 7h2.1l2.1-7v7h2v-9.5h-2.8l-2.3 7.4zm17.5-.4L52 20.3h-2.2v9.5h1.9v-6.6l3.8 6.7 2.2-.1v-9.5h-1.9v6.9zm-10.2 2.5h1.9v-9.5h-1.9v9.5zm14.2 0h1.9v-9.5h-1.9v9.5z"/></symbol><symbol id="Mitsubishi" viewBox="0 0 95 50"><path d="M47.4 33.6h-19L19 50h19l9.4-16.4zm9.7-16.9L47.6 0l-9.5 16.6 9.5 16.7 9.5-16.6zM57 50h19l-9.4-16.5h-19L57 50z"/></symbol><symbol id="Nissan" viewBox="0 0 95 50"><path d="M74.6 20.8c.1-.9-.4-1.7-1.3-1.8h-.1c-.8-.1-1.6-.2-2.4-.4C66.6 5.3 52.3-2 39 2.2c-7.7 2.5-13.8 8.5-16.3 16.2-.7.1-1.3.3-1.9.4-.9 0-1.7.7-1.9 1.7-.4 1.6-.2 7 0 8.8-.1.9.6 1.7 1.6 1.8h.2c.6.1 1.2.2 1.9.4C26.8 44.7 41 52 54.3 47.8c7.8-2.5 13.9-8.6 16.4-16.4 1.5-.2 2.3-.3 2.3-.3 1.4-.1 1.5-1.8 1.5-1.8.3-2.5.1-8.5.1-8.5zM46.7 6.9c7.5-.1 14.3 4.2 17.4 11-11.5-.9-23.1-1-34.6-.4C32.7 11 39.4 6.8 46.7 6.9zm12.6 20.7h-1.9l-.6-1.1h-3.1l-.5 1.1h-1.9l2.7-6h2.4l2.9 6zm-13-2.2c-.8-.1-1.3-.8-1.3-1.6v-.3c0-.9.6-1.8 1.5-1.9h4.3v1.6h-3.9v.8h3.3c.7.2 1.1.8 1.1 1.6v.3c0 .7-.4 1.4-1 1.7H45v-1.5h4.5v-.8l-3.2.1zm-6.9 0c-.8-.1-1.3-.8-1.3-1.6v-.3c0-.9.6-1.8 1.5-1.9h4.3v1.6H40v.8h3.3c.7.2 1.1.8 1.1 1.6v.3c0 .7-.4 1.4-1 1.7h-5.2v-1.5h4.5v-.8l-3.3.1zm-2.5-3.8v6h-2.1v-6h2.1zm-8.4 2v4h-1.8v-6h3.1l2.2 4.3v-4.3h1.5v6h-2.8l-2.2-4zm18.2 19.5c-7.5.1-14.3-4.3-17.4-11.1 8.2.6 17.6.7 17.6.7 6.6.1 12.6-.2 17.1-.6-3.1 6.8-9.8 11.1-17.3 11zm20.1-15.5h-2.9l-2.3-4.1v4.1h-1.8v-6H63l2 4.2v-4.2h1.8v6zm-11.5-4.4l-.9 1.8h1.7l-.8-1.8z"/></symbol><symbol id="Opel" viewBox="0 0 95 50"><path d="M72.2 25.9v-1.2C72.2 11.1 61.1 0 47.5 0 35.9 0 26.2 8 23.6 18.9l-8.3.1v4.4l7.6.3c-.1.3-.1.6 0 1 0 13.6 11 24.7 24.7 24.7 11.6 0 21.3-8 24-18.7l8.3-.1v-4.4l-7.7-.3zM47.5 46.6c-12 0-21.8-9.9-21.8-21.9v-.9l16.2.8-8.4 6.5 35-.4c-2.5 9.2-11 15.9-21 15.9zm21.8-20.9L53.1 25l8.7-6.6-35.3.4c2.6-9.3 11-16 21-16 12 0 21.8 9.8 21.8 21.8v1.1z"/></symbol><symbol id="Peugeot" viewBox="0 0 95 50"><path d="M70.9 46.2c-2-4.8-4.6-9.4-7.6-13.6-.6-.8-.4-1.3-.1-1.6 1-.8 1.9-1.7 2.7-2.7 1.3-1.5 1.6-3.2.7-5.6s-3.9-8.2-4.6-10.1c-.7-2.2-.8-3.2-.4-4.4.5-1.4 1.3-1.5 1.8-1.5.3 0 .5.2.5.5 0 1 .3 2 .7 3 .8 2 2.3 3.6 4.2 4.6.6.2.6-.2.6-.4s-.8-3.4-1.5-5.7c-.6-2.5-1-3-1.5-3.6-.9-.8-2.2-1.3-3.4-1.3-2.6.1-3.7 2.6-3.9 2.8 0 .4 0 .5-.3.4-.7-.5-2.9-2.3-3.1-3.4 0-.5-.4-1-.9-1-2.4-1-4.8-1.8-7.3-2.3-.7-.2-1.5-.2-2.2 0-1.6.3-3.2.8-4.7 1.6-.4.2-.8.5-1.1.9 0 .1-.2.2-.5.3-1 .3-2 .7-2.9 1.2-.3.1-.5.4-.4.8v.1c.5 1 1.1 2 1.9 2.8.4.2.7.4 1.2.4.2 0 .3.1.3 0 .1-.2.2-.4.4-.6.6-.3 1.2-.6 1.9-.6.3-.1.5 0 .8.1.4.3.6.7.8 1.1.2.5.1.6-.2.8-.6.2-1.3.3-2 .4-.4.1-.9 0-1.2-.2 0-.1-.1-.1-.2 0-.2.2-.5.4-.7.5s-.3.3-.2.5c0 0 0 .1.1.1.6 1 1.3 2.1 2.1 2.4.6.1 1.1 0 1.5-.5.3-.3.7-.4 1.1-.3.3.1.4.4.4.7-.4.7-.8 1.4-1.4 2-.3.2-.6.3-.8.2-.5-.2-7.8-4-8.8-4.4-.9-.4-1.9-.5-2.8-.6-.9 0-1.8 0-2.7.2-.5.1-1 .4-1.3.8-.7.5-1.2 1.2-1.4 2 .1.5.3 1 .5 1.5.1.1.3.2.4.2.6-.2 1.2-.3 1.9-.3.6.1 1 .6.9 1.2 0 .2.2.3.3.3.5 0 .9.1 1.4.3.8.5 1.6 1 2.3 1.6.2.2.2.4-.2.4-1.9.2-3.8.6-5.6 1.1-.9.2-1.7.6-2.3 1.3-.5.8-.9 1.7-1.1 2.7 0 .8.4 1.5 1 2.1.1.2.3.2.5.1.7-.5 1.6-.8 2.4-.9.4 0 .8.3 1 .7.2.2.3.1.8-.1 2.7-.2 5.4-.2 8.1-.1 1 0 2 .2 2.9.6.9.6 1.7 1.2 2.5 2 0 0-2.1 3.5-3.2 5.6-1.1 1.9-1.8 3.4-2.2 4.2s-.6 1.8-.6 2.7c.1.8.1 1.6.1 2.5 0 .5-.5.6-1.1.7-.9.2-2.7.4-4.2.8-1.3.3-1.8.6-2.1 1.7-.2 1.2-.4 2.5-.5 3.7 0 .4 0 .6.4.5.7-.1 1.4-.2 2.1-.2 1-.1 2.2-.1 3.1-.1h.5c1.9 0 7.6.3 7.9.4.5 0 .6 0 .6-.3.1-.7 0-2.1 0-2.9-.2-.9 0-1.8.6-2.5.8-.8 6.5-7.2 6.8-7.6.3-.3.5-.6.9-.2s5.2 3.8 6.1 4.5c.9.6 1.9 1 2.9.9.8 0 1 1.4.3 1.5-.6.2-1.6.4-2.3.5-.8.1-1.5.6-1.8 1.4-.3 1.3-.5 2.7-.6 4 0 .2 0 .5.3.4 2-.3 3.9-.4 5.9-.3 2.7.1 5.3.3 5.7.3.3.1.6-.1.6-.3.6-.9 1.4-1.7 2.2-2.4.3-.1.5-.6.3-1 0 .1 0 0 0 0M60.5 27.3c-.5.2-1.1.1-1.5-.3-.3-.3-3-3.6-3.9-4.6-.5-.5-.5-1.3-.1-1.8.2-.2.4-.3.6-.4 1.1-.4 3-1 3.6-1.3.5-.2.8-.6.9-1.1 0-.6 0-1.2.1-1.4 0-.1.1-.2.2-.2s.2 0 .2.1c.1.2.6 1.1 1.2 2.2.9 1.7 2 3.7 2.4 4.6.3.7.2 1.6-.4 2.1-.9 1-2.1 1.7-3.3 2.1M43.3 2.7c.2 0 .3 0 .3.1V3c0 .1-.1.1-.1.1-.2.1-1.3.5-1.6.6-.2.1-.4 0-.4-.1s0-.2.1-.3c0-.1.1-.1.2-.2s1.1-.4 1.5-.4"/></symbol><symbol id="Renault" viewBox="0 0 95 50"><path d="M52.5 2.5h-.6L39.2 24.9h2.3l6.3 11.3 6.3-11.3h2.5l-7.9-13.7c1.3-2.9 2.6-5.8 3.8-8.7zm1.2 22.4l-5.9 10.6-5.9-10.6 5.9-10.6 5.9 10.6z"/><path d="M53.7 0H41.8L28 24.9l13.9 25H53.4l13.9-25L53.7 0zm-10 47.4h-.6l3.9-8.8L39.2 25H28.4L42.1.4h11.4L67.2 25H56.7c-.1-.1-12.5 21.6-13 22.4z"/></symbol><symbol id="RR" viewBox="0 0 95 50"><path d="M43 4.4c-.3 0-.7.1-.9.4-.3.3-.4.7-.4 1.2 0 .4.1.8.4 1.2.5.5 1.3.5 1.9 0 .3-.3.5-.7.4-1.2 0-.4-.1-.8-.4-1.2-.3-.3-.7-.4-1-.4zm-5-.2h-1.2v1.5H38c.4.1.8-.2.9-.6s-.2-.8-.6-.9H38zm19.8-1.5H35.6c-.9 0-1.2.7-1.2 1.6v4.5h25V4.3c.1-.8-.6-1.6-1.6-1.6.1 0 0 0 0 0zM39 8.1c-.2-.4-.4-.9-.7-1.2-.1-.2-.4-.4-.7-.3h-.9v.6c0 .4.2.7.5.9h-1.6c.3-.2.4-.6.4-.9V4.7c0-.4-.1-.8-.3-1.2H38c.4 0 .8.1 1.2.3.4.2.7.6.7 1.2s-.4 1.1-1 1.1c.3.2.6.5.7.9.2.4.4 1.1.8 1.1H39zm5.5-.4c-.4.3-1 .5-1.5.5-.6 0-1.1-.2-1.5-.5-.5-.4-.8-1.1-.8-1.8s.3-1.3.8-1.8c.9-.6 2.1-.6 3 0 .5.4.8 1.1.8 1.8s-.3 1.4-.8 1.8zm4.7.4h-3.3c.2-.3.3-.6.2-.9V4.7c0-.4-.1-.8-.2-1.2h1.6c-.2.8-.6.9-.6 1.2v2.6H48c.5.1 1-.1 1.3-.4l-.1 1.2zm4 0h-3.3c.2 0 .2-.6.2-.9V4.7c0-.4 0-.8-.2-1.2h1.6c-.2.8-.6.9-.6 1.2v2.6H52c.5.1 1-.1 1.3-.4l-.1 1.2zm2.5.1c-.6 0-1.2-.1-1.7-.3v-1c.1.2.3.3.5.4.4.2.8.3 1.2.3.4.1.9-.2 1-.6 0-.5-.5-.5-1.2-.6-.7.1-1.3-.5-1.4-1.2v-.1c.1-.8.7-1.3 1.5-1.3h.1c.5-.1.9 0 1.3.3V5c-.1-.2-.2-.3-.4-.4-.3-.1-.6-.1-.8-.1-.5 0-.8.2-.8.4 0 .4.4.5 1.3.6.7 0 1.3.5 1.3 1.2 0 .9-.7 1.5-1.9 1.5zM37.9 42.8h-1.1v.8h1.1c.5 0 .9 0 .9-.4s-.4-.4-.9-.4zm4.8-.2c-.3 0-.7.1-.9.3-.3.3-.4.7-.4 1.1 0 .4.1.8.4 1.1.5.5 1.3.5 1.8 0 .3-.3.4-.7.4-1.1 0-.4-.1-.8-.4-1.1-.3-.2-.6-.3-.9-.3zM62.2 4.3c0-2.4-2-4.3-4.4-4.3H35.6c-2.4 0-4.4 1.9-4.4 4.3v41.3c0 2.4 2 4.3 4.4 4.3h22.2c2.4 0 4.4-1.9 4.4-4.3V4.3m-29.5 0c0-1.6 1.3-2.9 2.9-2.8h22.3c1.6 0 2.9 1.3 2.9 2.8v41.3c0 1.6-1.3 2.9-2.9 2.8H35.6c-1.6 0-2.9-1.3-2.9-2.8V4.3zm1.7 6.1v29.3h25V10.4h-25zm11.9 27.8h-5.7c.6-.8 1.6-1.3 1.6-3.2v-9c.8-.1 1.6-.2 3.1-.4V27s.5 0 .9-.1c.3.5.6 1 .8 1.5-.6 0-1.7.1-1.7.1V35c-.1 1.1.3 2.3 1 3.2zm1.1-3.9c.4 0 1.1-1.1.8-2.9-.3-2.4-1.3-4.7-2.9-6.7-1.8.5-3.6.7-5.5.8V32c0 2 1 2.3 1.5 2.3h-5.7c.6 0 1.9-.3 1.9-2.3V15.2c0-2-1.3-2.5-1.9-2.5h8.2c2.2 0 3.9.2 5.2 1 1.6 1 2.5 2.7 2.5 4.6 0 2.5-1.5 4.5-3.9 5.8-.1 0-.2.1-.3.1 1.9 2.3 3.2 5.1 3.8 8 .3 1.3.9 2.2 1.3 2.2l-5-.1zm5.7 3.9c.7-1 1-2.2.8-3.4-.4-2.6-1.5-5.1-3.1-7.1-.2 0-.3 0-.5.1-.2-.5-.5-1.1-.8-1.6 3.3-1.1 4.2-3.2 4.2-5 .1-1.3-.5-2.6-1.5-3.4-.1-.8-.3-1.6-.6-2.3.9.2 1.7.5 2.4.9 1.6 1 2.5 2.8 2.5 4.7-.1 2.5-1.5 4.7-3.7 5.7 2.4 2.6 3.5 6.3 4 8.7.3 1 .7 1.9 1.3 2.6l-5 .1zm-6-23.2c-1-.6-2.2-.8-3.3-.7h-3.9V24c7-.1 8.9-3.2 8.9-5.7 0-1.3-.6-2.6-1.7-3.3zm-1.8 1.6v6c-1.6.3-2.3.5-3.1.7v-5c0-2-1-2.4-1.6-3.1h6.2c.3.6.7 1.1 1.2 1.5l-2.7-.1zM34.4 40.5v5.2c0 .9.2 1.8 1.2 1.8h22.2c.9 0 1.7-.8 1.6-1.8v-5.2h-25zm4.5 5.6c-.3-.4-.4-1-.7-1.3-.1-.3-.4-.4-.7-.4h-.8v.9c0 .3.2.6.5.7h-1.5c.2 0 .3-.3.3-.7V43c.1-.3 0-.6-.3-.9h2.1c.4 0 .8 0 1.2.1.5.2.7.6.7 1.1s-.4 1-1 1c.3.2.5.5.7.8.2.4.4.8.8 1.1l-1.3-.1zm5.2-.3c-.4.3-.9.5-1.4.5s-1-.2-1.4-.5c-.5-.4-.8-1-.8-1.7s.3-1.3.8-1.7c.4-.3.9-.5 1.4-.5s1 .1 1.4.5c.5.4.8 1.1.8 1.7 0 .6-.3 1.3-.8 1.7zm3.8.1h-1.5c.3-.1.5-.4.5-.7v-.7l-1.5-1.9c-.1-.3-.4-.5-.7-.6h1.7c-.1 0-.1.1-.1.2 0 .2.1.3.2.4l.8 1.2.8-1.2c.1-.1.1-.2.1-.4 0-.1 0-.2-.1-.2h1.5c-.3.2-.6.5-.7.8l-1.2 1.7v.7c0 .4 0 .7.2.7zm5.2.1c-.4.2-.8.2-1.2.2-1.2.1-2.2-.7-2.3-1.9V44c0-.6.3-1.2.7-1.6.5-.4 1-.6 1.6-.5.4 0 .9.1 1.3.2v.9c-.4-.2-.8-.4-1.3-.4-.7 0-1.4.6-1.4 1.3v.2c-.1.7.4 1.4 1.2 1.4h.2c.5 0 1-.1 1.4-.5l-.2 1zm4.2-.1H54c.2 0 0-.3 0-.7v-2.3c0-.3.2-.9 0-.9h3.1v.9c0-.2-.4-.1-1-.1h-1.4v.8h2.1l-.1.8h-2v.8h1.5c.4.1.9 0 1.2-.3l-.1 1z"/></symbol><symbol id="Seat" viewBox="0 0 95 50"><path d="M70.9 2v12.5H40.8c10.2 1.6 19.9 3 30.1 4.6v4.5C54.8 20.2 39.1 17 23 13.7 23.3 3.6 30.3 2 42.9 2c9.3-.1 18.7.1 28 0zM23 48V35.6h30.4c-10.3-1.6-20.3-4-30.4-6.2v-1.9c16.1 3.4 31.9 5.6 48 9C70.7 46.7 63.7 48 51.1 48H23zm.1-30.5l47.8 7.6v4.5L23 19.2l.1-1.7zm0 5.3L71 30.6v4.3L23 24.6l.1-1.8z"/></symbol><symbol id="Skoda" viewBox="0 0 95 50"><path d="M71.8 22.7C70.5 9.1 58.3-1 44.7.2 31.1 1.5 21 13.7 22.2 27.3 23.5 40.9 35.7 51 49.3 49.8 63 48.5 73.1 36.3 71.8 22.7zM49.1 48.3C36.2 49.5 24.7 39.9 23.5 27S31.9 2.6 44.8 1.4C57.7.2 69.2 9.8 70.4 22.7c1.2 12.9-8.4 24.4-21.3 25.6z"/><path d="M61.2 23.5c-.8-8-7.9-13.8-15.8-13.1-7.9.7-13.8 7.8-13.1 15.8.8 8 7.9 13.8 15.8 13.1 8-.8 13.8-7.9 13.1-15.8zm-8.1 11.2c-.2 0-.3-.1-.4-.3V34c.1-.4 0-.6-.2-.7l-11.1-1c-1-.2-1.9 0-2.7.7-.5.2-1.9.2-2.1-.4-.4-1.7-.6-2.4-1.8-3.3-.3-.4-.3-.7.2-.8l3.3.3c.6.1 1 .2 1.4.4l1.8 1c.2.1.8.2.8-.5.1-1.8-.7-3.9-2.2-5.5-.5-.5-1.1-.9-1.8-1.3-.6-.3-1.1-.5-1.7-.5-1.1-.1-1.8-.2-1.9-.5-.7-.5 0-1.9.3-2.7s.8-1.5 1.6-1.9c1.2.2 2.6.9 4.3 2.1.5.1.7-.1.4-.6-1.2-1.1-4-2-4-2.6.5-1.1 2.1-2.1 3.2-2.8.8-.5 1.8-.9 2.4-.8.7.2 2 1.8 3.8 4.2.3.5.9.1.7-.5-.4-.5-.8-1.2-1-1.4-1-1.4-1.9-2.2-1.9-2.6.2-.8 2.1-.9 4.5-.4 4.6 3.4 6.2 10.8 3.2 18.1-.1.3-.2.6-.2.9 0 .3.2.4.5.4s.4-.1.5-.3c0-.3-.1-.5.1-.8 1.2-.2 3.7 1.2 4.4 2.5-.8 1-2.8 2-4.4 2z"/><path d="M49 25.8c1.1-.1 2 .7 2.1 1.8.1 1.1-.7 2-1.8 2.1s-2-.7-2.1-1.8c0-1 .8-2 1.8-2.1zM67.1 15.2l-7.1.4.9 1.8 1.5-.1.8 2-1.1 1 .7 2 5.3-4.8-1-2.3zm-2.8 3.3l-.6-1.3 2.3-.3-1.7 1.6zM59.7 6.8l-1.9-1.2-3.4 5 1.8 1.2c2 1.4 3.5 1.8 4.9-.2 1.3-1.9.8-3.4-1.4-4.8zm-.2 3.5c-1 1.5-1.8 1-2.7.2l1.8-2.7c1.1.7 1.8 1 .9 2.5zM48.4 2.8c-2-.1-3.5 1.1-3.5 3.3 0 2.2 1.5 3.1 3.7 3 2.2 0 3.7-.8 3.6-3.3-.1-2.4-1.8-2.9-3.8-3zm1.5 3.1c-.2 1.5-.8 1.9-1.5 1.9s-1.4-.3-1.3-2.1c.1-.7.3-1.7 1.4-1.8.8 0 1.6.6 1.4 2zM34.3 6.7l1.7-1L37.4 8l.3-3.2 2.1-.8-.5 3.3 3.2 2.1-2 .8-2.9-1.7 1.5 2.5-1.7 1.1-3.1-5.4zM32.3 17.8c2.1-1.4 3.2-3.8 1.5-5-1.9-1.4-3.2 1.3-4 1.2-.5-.1 0-1.3 1.2-2.3l-.8-.7c-2.4 1.9-2.9 4.3-1.1 5.2 1.5.7 3-1.9 3.4-1.8 1.3.5-.9 2.5-1.2 2.6l1 .8zM56.7 40.1c-.6-.7-1.9-.7-2.8-.3-1.4.8-1.8 2.6-.7 4 .7 1 2.9.6 3.6-.2 1-1.1.7-2.7-.1-3.5zm-1.2 3.1c-.6.3-1.2-.3-1.5-.8-.3-.6-.3-1.5.3-1.7.6-.2 1.2.1 1.5.9.2.5.3 1.3-.3 1.6zM47.9 45.9l-.2-3.3-1.2.1-.1-1.1 3.7-.2.1 1.1-1.1.1.2 3.3h-1.4zM40.1 40.2l1.5.5L41 43c-.1.4-.3 1 .3 1.1s.7-.4.8-.8l.7-2.4 1.3.4-.7 2.4c-.3 1.2-1.4 1.6-2.4 1.3-1.2-.3-1.8-1.2-1.5-2.5l.6-2.3zM36 37.7L32.1 40l1.2.9.7-.5 1.2 1-.3.9 1.1 1 1.7-4.4-1.7-1.2zm-.4 2.7l-.8-.6 1.5-1-.7 1.6zM27.2 13.2h.9c.2-.4.4-.8.7-1.1l-.2-.9c-.3.3-.5.5-.6.8l.2.4h-.5c-.3.3-.4.4-.5.8z"/></symbol><symbol id="Smart" viewBox="0 0 95 50"><path d="M58.6 4.8C64.1 8.4 72 19.4 74.1 25.5c-2.1 6.1-10 17.1-15.5 20.7V4.8zM47 12.7c2.9 0 6.5 1.1 9.4 3.2V3.4C53.5 1.6 50 .6 45.9.6 32.2.6 21 11.7 21 25.5s11.1 24.9 24.9 24.9c4.1 0 7.5-1 10.4-2.8V35.2c-2.9 2-6.5 3.2-9.4 3.2-7.8 0-13.5-5.7-13.5-12.8.1-7.3 5.8-12.9 13.6-12.9z"/></symbol><symbol id="SsangYong" viewBox="0 0 95 50"><path d="M83 18.2C81 10.5 71 6.6 71 6.6c-2.7-1-1.6.6-1.6.6s11.5 5.3 11.5 12.6c0 9.1-12.5 11.8-12.5 11.8C79.7 28 79.8 20.3 79.8 20.3c-.2-7.7-10.4-13.1-10.4-13.1-3.9-2.2-6-2.8-6-2.8-5.1-1.7-3.5.3-3.5.3s15.4 4.9 15.4 15.6c0 11-21.5 14.5-21.5 14.5C74 31 74 20.4 74 20.4c0-9.6-14.2-15.7-14.2-15.7-2.1-1.2-5.7-2.1-5.7-2.1-3.3-.7-1.4.7-1.4.7C66.3 11.3 66.3 20 66.3 20c0 9.7-8.9 12.2-8.9 12.2-2.6 1-7.6 1.8-7.6 1.8-.8.2-1.4.8-1.4 1.5 0 .3.1.5.3.7.5.5 2.1 1.7 2.1 1.7.6.6.9 1.2.9 2 0 1.8-2.1 3.3-4.7 3.3h-.2c-2.6 0-4.7-1.5-4.7-3.3 0-.7.3-1.4.9-2 0 0 1.6-1.2 2.1-1.7.2-.2.3-.5.3-.7 0-.7-.6-1.2-1.4-1.5 0 0-5-.8-7.6-1.8 0 0-8.9-2.4-8.9-12.2 0 0 0-8.8 13.6-16.7 0 0 1.9-1.5-1.4-.7 0 0-3.6.9-5.7 2.1 0 0-14.2 6.1-14.2 15.7 0 0 0 10.6 20.2 14.4 0 0-21.5-3.5-21.5-14.5 0-10.7 15.4-15.6 15.4-15.6s1.7-2-3.5-.3c0 0-2.1.6-6 2.8 0 0-10.2 5.4-10.4 13.1 0 0 0 7.7 11.4 11.3 0 0-12.5-2.7-12.5-11.8 0-7.3 11.5-12.6 11.5-12.6s1.1-1.5-1.6-.6c0 0-10 3.9-12.1 11.6 0 0-.6 2.9.3 5 1.1 2.6 4 6.9 11.5 9.3 0 0 3.4 1.4 17 4.1l.8.2s.6.3.2.7l-1.9 1.6s-2.7 2.1 1.2 3.9c0 0 2.4.8 4.1 2.6 0 0 1.1 1 2.9 1.1h.2c1.9 0 3-1.1 3-1.1 1.7-1.7 4-2.6 4-2.6 3.9-1.8 1.2-3.9 1.2-3.9l-1.9-1.6c-.4-.5.2-.7.2-.7l.8-.2c13.6-2.7 17-4.1 17-4.1 7.4-2.4 10.4-6.7 11.5-9.3.9-2.1.2-5 .2-5z"/></symbol><symbol id="Subaru" viewBox="0 0 95 50"><path d="M47.9 44.1h1.3l.9-.1h.9l.8-.1h.9l.8-.1.8-.1.8-.1.8-.1.8-.1.8-.2.8-.2.8-.2.8-.2.8-.2.8-.2.8-.2.8-.2.7-.2.8-.2.7-.3.7-.2.7-.3.7-.3.7-.3.7-.3.7-.3.6-.3.6-.3.6-.3.6-.4.6-.3.6-.3.6-.4.6-.4.5-.4.5-.4.4-.4.5-.4.4-.4.4-.4.4-.4.4-.4.3-.4.4-.4.3-.4.3-.4.3-.4.3-.4.2-.4.2-.4.2-.4.2-.4.2-.4.2-.4.2-.4.1-.4.1-.4.1-.4.1-.4.1-.4v-1.7l-.1-.4-.1-.4-.1-.4-.1-.4.4-1-.2-.4-.2-.4-.2-.4-.2-.4-.2-.4-.2-.4-.3-.6-.2-.4-.3-.4-.3-.4-.3-.5-.4-.4-.3-.4-.5-.5-.4-.4-.4-.4-.4-.4-.6-.4-.4-.4-.5-.4-.5-.4-.6-.3-.6-.4-.6-.3-.6-.3-.6-.4-.6-.4-.6-.3-.6-.3-.7-.3-.7-.3-.7-.3-.7-.3-.7-.3-.7-.2-.7-.3-.8-.2-.7-.3-.8-.2-.8-.2-.8-.1-.8-.2-.8-.2-.8-.1-.8-.2-.8-.2-.8-.1-.8-.1-.8-.1-.8-.1-.8-.1-.9-.1h-2l-.9-.1h-3.5l-.8.1h-.8l-1 .1-.8.1-.8.1-.8.1-.9.1-.8.1-.8.1-.8.2-1 .1-.8.2-.8.2-.8.1-.8.2-.7.2-.8.2-.8.3-.7.2-.7.3-.8.1-.7.3-.7.3-.7.3-.7.3-.6.3-.7.3-.7.3-.6.3-.6.4-.6.3-.6.3-.5.5-.6.4-.5.4-.5.3-.5.4-.4.4-.5.4-.4.4-.4.4-.4.4-.4.4-.4.5-.3.4-.3.4-.3.4-.3.5-.2.4-.3.4-.2.4-.2.4-.2.4-.2.4-.1.6-.1.4-.1.4-.1.4-.1.4v1.8l.1.4.1.4.1.4.1.4.1.4.1.4.2.4.2.4.2.4.2.4.2.4.3.4.2.4.3.4.3.4.3.4.3.4.3.4.4.4.4.4.4.4.4.4.4.4.4.4.5.4.5.4.5.4.6.4.6.4.6.3.6.3.6.4.6.3.7.3.7.3.6.3.7.3.7.3.7.3.7.3.7.2.7.3.7.2.8.2.8.2.7.2.8.2.8.2.8.2.8.2.8.2.8.2.8.1.8.1.9.1.8.1.8.1h.8l1 .1.8.1.8.1 2.3.4zM47 4h2.3l.9.1 1 .1h.8l.9.1.9.1.8.1.9.1.8.1.9.2.9.1h.8l.8.2.8.2.8.2.8.2 1 .2.8.2.8.2.8.3.8.3.7.2.8.3.7.3.7.3.7.3.7.3.7.3.7.4.7.4.6.3.6.4.7.4.6.4.6.4.6.4.6.4.5.4.5.4.5.4.4.4.5.5.4.4.4.4.4.5.4.4.3.5.4.5.3.5.3.4.3.5.2.5.2.6.2.5.2.5.2.5.2.6.2.5.1.5.1.5-.2.6v2l-.1.5-.1.6-.1.5-.1.4-.2.5-.2.5-.2.5-.2.5-.2.5-.2.6-.3.4-.2.5-.3.5-.4.5-.3.5-.4.4-.4.5-.4.4-.4.4-.5.4-.4.5-.5.4-.5.4-.5.4-.6.4-.6.4-.6.4-.6.4-.7.4-.6.4-.6.3-.6.6-.7.3-.7.3-.7.3-.7.3-.7.3-.7.3-.8.4-.7.2-.8.2-.8.3-.8.2-.8.3-.8.2-.8.2-.8.2-.8.2-1 .2-.8.2-.9.1-.9.2-.8.1-.9.1-.8.1-.9.1-.9-.1-.8.1-1 .1h-4.5l-.8-.1-.9-.1h-1l-.9-.1-.9-.1-.9-.1-.8-.1-.9-.1-.8-.2-.8-.1h-1l-.8-.2-.8-.2-.8-.2-.8-.2-.9-.2-.8-.2-.8-.2-.8-.3-.8-.3-.8-.3-.7-.3-.7-.3-.7-.3-.8-.2-.7-.3-.7-.3-.6-.3-.7-.4-.6-.3-.7-.5-.6-.4-.6-.4-.6-.4-.6-.4-.5-.4-.6-.4-.5-.4-.5-.4-.4-.4-.4-.5-.4-.4-.4-.4-.4-.5-.3-.4-.4-.7-.3-.5-.4-.5-.3-.5-.3-.4-.2-.6-.2-.5-.2-.5-.2-.5-.2-.5-.1-.5-.1-.5-.1-.5-.1-.6-.1-.4v-2l.1-.5.1-.5.1-.5.1-.5.2-.6.2-.5.2-.5.2-.5.2-.6.2-.5.3-.5.3-.5.3-.4.3-.5.3-.5.3-.4.4-.5.4-.4.4-.4.4-.5.4-.4.5-.4.5-.4.6-.4.5-.4.6-.4.6-.4.6-.4.6-.4.7-.4.6-.3.7-.4.6-.3.7-.3.8-.5.7-.3.7-.3.7-.3.7-.3.9-.2.8-.2.8-.3.8-.2.8-.3.8-.2.8-.2.8-.2.8-.2.9-.2.9-.2.8-.1.8-.2.9-.1.8-.1.9-.1.9-.1 1 .1.9-.1.9-.1H47zM22.6 19.3l-7 .9c-.1 0-.2.1-.2.2s.1.2.2.2l14 1.9c.7.1 1.4.6 1.6 1.4l2.5 8.2c0 .1.2.2.3.2s.2-.1.3-.2l2.5-8.2c.2-.7.8-1.2 1.6-1.3l14-1.9c.1 0 .2-.1.2-.2s-.1-.2-.2-.2l-14-1.9c-.7-.1-1.3-.6-1.6-1.3l-2.5-8.3c0-.1-.1-.2-.2-.2s-.2.1-.3.2L31.1 17c-.2.7-.8 1.2-1.6 1.3l-6.9 1zm14 18.2l3.1.6c.4.1.8.4.9.8l.9 3.6c0 .1.1.1.2.1s.1-.1.1-.2l1-3.6c.1-.4.5-.7.9-.8l6.2-1c.1 0 .1-.1.1-.1 0-.1-.1-.1-.1-.2l-6.2-1c-.4-.1-.8-.4-.9-.8l-1-3.6c0-.1 0-.1-.1-.2-.2 0-.2.1-.2.2l-.9 3.6c-.1.4-.5.7-.9.8l-6.2 1c-.1 0-.1.1-.1.2s.1.1.1.1l3.1.5zM55 34.8l-3.3.5c-.1 0-.1.1-.1.2s0 .1.1.1l6.6 1.1c.4.1.8.4.9.8l1.1 3.7c0 .1.1.2.2.2l.2-.2 1-3.7c.2-.4.5-.7.9-.8l6.6-1.1c.1 0 .2 0 .2-.1s-.1-.1-.2-.2l-6.6-1c-.4-.1-.7-.4-.9-.8l-1-3.8c0-.1-.1-.1-.2-.1s-.2 0-.2.1l-1.1 3.8c-.2.4-.5.7-.9.8l-3.3.5zm4.4-6.8l3.1-.5c.1 0 .1-.1.1-.2s-.1-.1-.1-.1l-6.2-1.1c-.4-.1-.7-.4-.8-.8l-1-3.5c-.1-.1-.1-.1-.2-.1s-.1.1-.2.1l-.9 3.5c-.1.4-.5.7-.9.8l-6.1 1.1c-.1 0-.1.1-.1.1 0 .1 0 .1.1.2l6.1 1c.4.1.8.4.9.8l.9 3.6c0 .1.1.2.2.2s.2-.1.2-.2l1-3.6c.1-.4.4-.7.8-.8l3.1-.5zm2.3-12.2l-3.1.5c-.1 0-.1.1-.1.1 0 .1 0 .1.1.2l6.2 1c.4.1.8.4.9.8l.9 3.6c0 .1.1.2.2.2s.2-.1.2-.2l1-3.6c.1-.4.4-.7.8-.8l6.2-1c.1 0 .1-.1.1-.2s-.1-.1-.1-.1l-6.2-1c-.4-.1-.7-.4-.8-.8l-1-3.6c-.1-.1-.1-.1-.2-.1s-.1 0-.2.1l-.9 3.6c-.1.4-.5.7-.9.8l-3.1.5zm5.8 11l-3.1.5c-.1 0-.1.1-.1.1 0 .1.1.1.1.2l6.2 1c.4.1.8.4.9.8l1 3.6c0 .1 0 .2.1.2s.1 0 .2-.1l1-3.6c.1-.4.4-.7.8-.8l6.2-1c.1 0 .1-.1.1-.2s-.1-.1-.1-.1l-6.2-1.1c-.4-.1-.7-.4-.8-.8l-1-3.5c0-.1-.1-.1-.1-.1-.1 0-.1 0-.2.1l-1 3.5c-.1.4-.5.7-.9.8l-3.1.5z"/></symbol><symbol id="Suzuki" viewBox="0 0 95 50"><path d="M35.7 8.4c-7.9 4.8-12.6 6.5-13.6 6.9.4.2 32.6 22.7 32.6 22.7s0 .1.1.1c0 0 0 .1-.1.1l-1.4.9h-.2L41.2 31c-8.2-5.4-18 .9-19.2 1.8.3.2 24.8 17.1 25 17.2.5-.5 3.9-3.8 11.3-8.3 7.9-4.8 12.6-6.5 13.6-6.9L39.3 12l-.1-.1s0-.1.1-.1l1.4-.9h.1l12 8.1c8.2 5.5 17.9-.9 19.2-1.7C71.7 17 47.2.1 47 0c-.5.5-3.9 3.8-11.3 8.4"/></symbol><symbol id="Toyota" viewBox="0 0 95 50"><path d="M47.4 2.9c-19.1 0-34.6 9.9-34.6 22s15.5 22 34.6 22S82 37.1 82 25 66.5 2.9 47.4 2.9zM21.8 16.2c1 4 7.9 7.3 17.2 8.5v.6c0 9.4 2.7 17.4 6.4 19.5-15.2-.7-27.2-9.1-27.2-19.3 0-3.3 1.3-6.5 3.6-9.3zm20.7 8.9c1.6.1 3.3.2 4.9.2 1.7 0 3.3-.1 4.9-.2-.2 7-2.4 12.5-4.9 12.5-2.6 0-4.7-5.5-4.9-12.5zm13.3-.3c9.6-1.3 16.6-4.7 17.3-8.8 2.4 2.8 3.8 6.1 3.8 9.5 0 10.3-12.1 18.7-27.5 19.4 3.7-2.1 6.4-10.1 6.4-19.5v-.6zM50.4 6.6c9.6.5 16.9 3.3 16.9 6.6 0 2.7-4.9 5.1-11.9 6.2-.7-5.9-2.6-10.6-5-12.8zm1.8 13.1c-1.5.1-3.1.2-4.7.2s-3.2-.1-4.7-.2c.6-5.6 2.5-9.6 4.7-9.6 2.1.1 4 4.1 4.7 9.6zm-12.8-.3c-7-1-11.9-3.4-11.9-6.2 0-1.1.8-2.2 2.3-3.1 1.7-.9 3.6-1.6 5.6-2.2 2.6-.7 5.6-1.1 9-1.3-2.4 2.2-4.2 6.9-5 12.8z"/></symbol><symbol id="Vauxhall" viewBox="0 0 95 50"><path d="M36.1 15c.6-1.1 1.7-2.8 2.4-3.9h-1.8l-1.5 2.5-1-2.3-1.5.2 1.3 3.6c.8-.1 1.2-.1 2.1-.1zM46.5 14c.1-.1.3-.1.3-.2.2-.1.1-.2-.1-.2s-.4-.1-.5-.2c-.4-.2-1-.3-1.2.2.7.1.9.7 1.5.4zM37.6 29.1c-.3-.8-.5-1.8-.7-2.4h-.6c0 .5.1 1.5.3 2.1-1.1 0-2.3-1.3-2.5-2.2h-.7c0 .4.3 1.3.5 1.6-1 0-2-1-2.2-1.7h-.5c.1.4.1.9.3 1.5-.6 0-1.9-1-2-1.6l-.4.2c.1 1.2.3 2.4.6 3.5.2.6.4 1.2.6 1.7.8.4 1.9.4 3.2-.2 1.5-.8 2.9-1.8 4.1-2.5z"/><path d="M71.7 25c0-13.8-11-25-24.7-25-13.6 0-24.7 11.2-24.7 25S33.4 50 47 50c13.7 0 24.7-11.2 24.7-25zm-39 14l-1.5-1.8c-.3.1-.6.1-1.1.2.1-.4.1-.9.2-1.1-.7-.3-1.3-1.3-1.3-2.1-.4-.2-.6-.3-.9-.5.1-.2.3-.7.6-1.1-.6-1.5-1.2-3.9-1.4-5.7-.4-.1-.7-.2-1.2-.3 0 0 .4-.6.5-1-.2-.7-.2-1.2-.1-1.6.1-.3.1-.5.3-.7l-.5-1.1c.6-.3.9-.6 1.3-.7.1-.8.3-1.5.5-2.3.9-3.3 2.5-6.5 4.4-8.5 1.9-.5 6-.7 8.4-.5-.8 1.3-2.8 4.5-3.4 5.7-2.3 0-4.1 0-6.6.3-.5 1-.9 2-1.2 3.1-.2.8-.4 1.6-.6 2.5.3.4.6.9 1.6 1 1.9.1 4.1-.1 5.3 0 1 0 1.4-.7 1.8-1.8-.4.1-1.2.1-2.2.5.8-1.7 2.4-3.1 3.5-3.4 0-.1.1-.3.2-.4-.8 0-1.9.3-2.4.7 1.1-1.6 1.8-2.3 3.4-2.7.1-.1.1-.2.2-.3-.4 0-.9-.1-1.7.2.7-1 1.4-1.8 2.6-1.9.5-1 1.5-2 2.6-3.2.1 1 .2 1.5.3 1.8 0 .1.1.1.2.1.8 0 1.8.2 2.2.3.7.1.8.3.8 1 2.3.5 2.5 1.7 1.4 3.7-.2-.8-1-1.2-2.4-1.7l-.2.3c1.2.4 1.2.6 1.2 1.3-.8-.5-2.4-.3-2.6 1.1-.5 2.6 2 5.8 1.9 5.8 4.6-2.5 6.1-6 4.8-9.5-2.7-6.9-10.5-7.7-14.2-7 3.7-3.7 9.8-3.4 13.4.1 3.2 2.9 3.7 5.3 4 7.6l.5.1c.5-4.5-2.9-9.6-8.7-11.1 7.8-1.2 12.6 4.1 11.2 11.8l.4.3c1.6-2.9 1.1-8-2.4-10.4 4.1.8 6.4 4.3 5.9 8.4-.2 1.5-.9 3.2-2.3 4.2l.1.4c3-1.5 3.3-5.2 2.9-7.4.7.6 1.6 1.9 1.9 2.6 1.2 3.9-1.5 7-5.2 7.8l-.2.5c2.5-.1 4.8-1.7 5.7-3.9-.1 2.5-1 4.2-2.7 5.3-1.4.9-3.2 1.3-5.4 1.4l-.4.4c1.4.2 4-.1 5.1-.8-1.4 3.3-4.7 3.4-10.4 3.3 2.5 1.6 4.2 1.7 6.4 2.6 1.9.8 3.6 2.1 4.1 4.2.4-.9.3-2.3.2-3.5-.3-2.4 0-5.1 1.1-6.5.5-.7 1.1-1.1 1.7-1.3.8-.3 1.5-.3 2.2 0 1.1.4 1.8 1.6 1.3 2.9-.3.7-.9 1.7-.2 2.2-1.4.8-2.3-.5-1.9-1.6.2-.6.1-1-.2-1.3-.4-.4-.9-.1-.9-.1s-.1.2-.2.3c.6-.2 1.2 1.1-.1 2.1 0-1-1.6-1.4-1.9.4-.1 1.8 1.9 5.5-.3 9.1-1.6 2.5-4.4 4.3-6.7 5.6-3.3-.8-14-.6-16.7 0-2.2-.9-4.3-2.5-6-4.4z"/><path d="M49.2 35c-5.8.1-7.3-.1-9.4-2l-.4.2c.1.3.8 1.2 1.1 1.4-1.1.4-2.2.2-3.1-.6l-.5.2c.3.5.8 1 1.3 1.3-1.1.3-2.8 0-3.1-.6l-.5.2c.1.4.7 1.1 1 1.3-.8.3-2.1.1-2.9-.6l-.3.3c.5.7 1 1.3 1.6 1.9.5.5 1 .9 1.5 1.4 6.2-1.3 14.6-1 18.7-.4.4-2.3-1-4.1-5-4z"/></symbol><symbol id="Volvo" viewBox="0 0 95 50"><path d="M39 25.1c0 1.1.6 2 1.4 2 .7 0 1.4-.9 1.4-2s-.6-2-1.4-2c-.9 0-1.4.9-1.4 2zm24.5 0c0 1.1.6 2 1.4 2 .7 0 1.4-.9 1.4-2 0-1.2-.6-2.1-1.4-2.1s-1.4.9-1.4 2.1zM68.7 9c.4-.4 1-.4 1.4-.1l.2.2 1.2 1.8c.3.5.6.5.6-.2V1.9c0-.6-.5-1.2-1.2-1.2H62c-.6 0-.7.3-.2.6l2.1 1.3c.4.3.6.9.3 1.3 0 .1-.1.1-.1.2l-.6.6c-.4.4-1.1.5-1.6.2-11-7.8-26.3-5.2-34.1 5.9S22.4 37.3 33.5 45s26.3 5.2 34.1-5.9C70.5 35 72.1 30 72.1 25c0-4.6-1.3-9.1-3.8-13.1-.3-.5-.6-1.9-.2-2.3l.6-.6zm-21.1-.8C55 8.2 61.5 13 63.8 20H31.5c2.2-7 8.7-11.8 16.1-11.8zm-3 15v-.7h5.1v.7h-1.3V27h1.4c.9 0 1.7-.7 1.7-1.6h.8v2.5h-7.7V27h1.3v-3.8h-1.3zm7.6 0h-1.3v-.7h5.5v.7H55l1.9 3.3 1.7-3.3h-1v-.7h3.8v.7h-1.3l-2.5 4.7h-3l-2.4-4.7zm-7.9 1.9c0 1.6-1.8 2.9-4 2.9-2.1 0-3.9-1.3-3.9-2.9 0-1.5 1.8-2.8 3.9-2.8 2.2 0 4 1.3 4 2.8zm-14.1 2.7l-2.5-4.7h-1.3v-.7h5.5v.7h-1.4l1.9 3.3 1.8-3.3h-1v-.7H37v.7h-1.3l-2.5 4.7h-3zM47.6 42c-7.4 0-13.9-4.8-16.2-11.8h32.3C61.5 37.3 55 42 47.6 42zm21.2-16.9c0 1.6-1.8 2.9-4 2.9-2.1 0-3.9-1.3-3.9-2.9s1.8-2.9 3.9-2.9c2.3 0 4 1.3 4 2.9z"/></symbol><symbol id="VW" viewBox="0 0 95 50"><path d="M47 0C33.2 0 22 11.2 22 25s11.2 25 25 25 25-11.2 25-25S60.8 0 47 0zm0 47.8c-12.6 0-22.7-10.2-22.7-22.8S34.5 2.2 47 2.2c12.6 0 22.7 10.2 22.7 22.8S59.5 47.8 47 47.8zM42 8c3.3-.9 6.7-.9 10 0l-5 11-5-11zm14.5 2.1c1.9 1.2 3.5 2.7 4.8 4.5l-8.2 18.1-3.2-7h-6l-3.2 7-8.2-18.1c1.3-1.8 2.9-3.3 4.8-4.5L44 24.5h6l6.5-14.4zM29.8 20.4c-2.2 8.1 1.7 16.7 9.2 20.4l-9.2-20.4zM42.1 42c3.2.9 6.6.9 9.8 0L47 31.2 42.1 42zm12.8-1.1c7.5-3.8 11.4-12.3 9.2-20.4l-9.2 20.4z"/></symbol></svg>